<?xml version="1.0" encoding="utf-8"?>
<!-- Generator: Adobe Illustrator 15.0.2, SVG Export Plug-In  -->
<!DOCTYPE svg PUBLIC "-//W3C//DTD SVG 1.1//EN" "http://www.w3.org/Graphics/SVG/1.1/DTD/svg11.dtd" [
	<!ENTITY ns_flows "http://ns.adobe.com/Flows/1.0/">
]>
<svg version="1.1"
	 xmlns="http://www.w3.org/2000/svg" xmlns:xlink="http://www.w3.org/1999/xlink" xmlns:a="http://ns.adobe.com/AdobeSVGViewerExtensions/3.0/"
	 x="0px" y="0px" width="49px" height="56px" viewBox="-3.635 0 49 56" enable-background="new -3.635 0 49 56"
	 xml:space="preserve">
<defs>
</defs>
<path display="none" fill-rule="evenodd" clip-rule="evenodd" d="M32.942,0c1.269,0,2.537,0,3.805,0
	c8.917,1.941,15.585,7.729,15.512,17.561c-0.062,8.342-5.412,13.636-10.243,15.805C29.61,38.935,15.931,28.619,17.43,15.22
	C18.193,8.397,23.928,1.436,32.942,0z"/>
<path display="none" fill-rule="evenodd" clip-rule="evenodd" d="M20.064,35.708c6.133,6.674,23.595,6.004,29.268,0.292
	c8.984,3.991,13.841,12.11,15.22,23.707c-19.902,0-39.805,0-59.708,0C5.983,47.772,11.25,39.967,20.064,35.708z"/>
<path display="none" fill-rule="evenodd" clip-rule="evenodd" d="M19.386,1.983c10.248,0,20.496,0,30.744,0c0,0.625,0,1.248,0,1.872
	c4.28,0,8.557,0,12.835,0c0,0.713,0,1.425,0,2.14c-1.619,8.434-2.545,15.532-7.754,20.051c-3.28,2.846-7.898,3.546-11.765,5.881
	c-2.279,1.377-3.41,3.986-6.148,4.545c0.123,6.026-1.141,13.439,4.277,14.17c-4.1,0.625-9.357,0.09-13.903,0.269
	c5.359-0.792,4.266-8.032,4.277-14.17c-1.846-1.452-4.03-2.565-5.346-4.545C14.504,28.965,7.499,20.642,6.552,6.261
	c0-0.803,0-1.604,0-2.406c4.196-0.172,9.082,0.346,12.834-0.268C19.386,3.053,19.386,2.518,19.386,1.983z M23.128,26.848
	c-2.184-5.569-4.13-11.376-3.742-19.518c-2.942,0-5.883,0-8.823,0C11.342,17.246,15.058,24.225,23.128,26.848z M46.387,26.848
	c8.051-2.644,11.642-9.749,12.566-19.518c-2.94,0-5.881,0-8.823,0C50.401,15.355,48.507,21.212,46.387,26.848z"/>
<rect x="21.698" y="52" display="none" fill-rule="evenodd" clip-rule="evenodd" width="25" height="7"/>
<path display="none" fill-rule="evenodd" clip-rule="evenodd" d="M32.659,0.886c1.381,0,2.762,0,4.144,0
	c2.943,0.836,4.211,3.349,3.707,7.633c1.465,1.007,3.852,1.092,5.016,2.399c1.865-1.042,2.825-2.99,4.798-3.925
	c4.214-0.707,7.905,3.113,7.852,6.324c-0.047,2.763-2.552,4.223-4.144,5.888c0.908,1.563,1.551,3.393,2.181,5.234
	c4.253-0.473,6.9,0.659,7.633,3.708c0,1.308,0,2.617,0,3.925c-0.731,3.122-3.382,4.324-7.633,3.926
	c-0.831,1.495-1.159,3.494-2.181,4.798c1.188,2.316,3.972,3.121,4.144,6.106c0.182,3.163-2.491,4.866-4.798,6.543
	c-4.52,0.594-5.605-2.246-7.633-4.144c-1.563,0.908-3.393,1.551-5.234,2.181c0.504,4.284-0.764,6.797-3.707,7.633
	c-1.382,0-2.763,0-4.144,0c-2.875-0.833-4.218-3.196-3.708-7.415c-1.4-1.071-3.741-1.201-5.016-2.398
	c-2.338,1.659-3.184,4.812-7.851,4.144c-5.793-2.352-5.812-9.337-0.654-12.431c-0.746-1.58-1.561-3.091-1.963-5.016
	c-4.328,0.402-7.129-0.723-7.851-3.926c0-1.309,0-2.617,0-3.925c0.732-3.048,3.38-4.181,7.633-3.708
	c0.63-1.842,1.272-3.671,2.181-5.234c-1.597-1.671-4.097-3.124-4.144-5.888c-0.054-3.195,3.655-7.047,7.851-6.324
	c1.973,0.935,2.933,2.883,4.798,3.925c1.229-1.17,3.223-1.575,5.016-2.181C28.453,4.386,29.607,1.688,32.659,0.886z M22.19,33.599
	c2.91,11.999,22.001,12.697,25.08,0c2.435-10.04-5.629-16.378-12.867-16.139C26.482,17.723,20.063,24.824,22.19,33.599z"/>
<path display="none" fill-rule="evenodd" clip-rule="evenodd" d="M33.967,24.439c3.911-0.532,7.091,2.042,6.542,6.542
	c-0.757,6.202-10.618,6.428-11.559,0.218C28.386,27.468,30.184,24.954,33.967,24.439z"/>
<path fill-rule="evenodd" clip-rule="evenodd" d="M18.944,38.14c-1.662-1.09-2.984-2.521-4.615-3.644
	c2.709-6.985,7.732-12.8,12.387-18.215c4.875-5.671,10.193-10.99,15.301-16.272c0.282-0.039,0.433,0.054,0.485,0.243
	c-2.567,6.115-5.853,12.132-9.229,17.973C29.075,25.485,25.073,33.053,18.944,38.14z"/>
<path fill-rule="evenodd" clip-rule="evenodd" d="M0,54.169c1.091-1.625,2.687-3.033,3.886-6.071
	c1.607-4.069,2.3-11.189,7.772-11.172c2.688,0.008,4.012,2.446,5.586,4.129C17.132,50.956,10.546,55.491,0,54.169z"/>
</svg>
