<?xml version="1.0" encoding="utf-8"?>
<!-- Generator: Adobe Illustrator 15.0.2, SVG Export Plug-In  -->
<!DOCTYPE svg PUBLIC "-//W3C//DTD SVG 1.1//EN" "http://www.w3.org/Graphics/SVG/1.1/DTD/svg11.dtd" [
	<!ENTITY ns_flows "http://ns.adobe.com/Flows/1.0/">
]>
<svg version="1.1"
	 xmlns="http://www.w3.org/2000/svg" xmlns:xlink="http://www.w3.org/1999/xlink" xmlns:a="http://ns.adobe.com/AdobeSVGViewerExtensions/3.0/"
	 x="0px" y="0px" width="799px" height="600px" viewBox="-86.921 -65.679 799 600" enable-background="new -86.921 -65.679 799 600"
	 xml:space="preserve">
<defs>
</defs>
<path id="British_Columbia_2_" fill="#B30000" stroke="#FFFFFF" stroke-width="5" stroke-miterlimit="10" d="M38.559,211.106
	c-0.212-0.424-0.429-1.691-0.885-2.146c-0.634-0.635-2.086-1.148-2.272-1.895c-0.066-0.264-0.148,2.006-0.253,2.525
	c-0.148,0.746,0.379,1.488,0.379,2.273c0,0.699,0.62,1.744,0.884,2.273c0.313,0.625,0.444,1.127,0.253,1.893
	c-0.171,0.686,0.38,1.646,0.505,2.146c0.127,0.51,0.358,1.223,0.632,1.77c0.328,0.656,0.24,1.16,0,1.641
	c-0.498,0.994,0.87-0.182,1.01-0.252c0.689-0.346,0.505-1.313,0.505-2.021c0-0.768,0.127-1.406,0.127-2.146s0.215-1.113,0.379-1.768
	c0.042-0.168,0.084-0.336,0.126-0.504c0.146-0.584,0-1.412,0-2.021c0-0.871-0.509-1.143-0.758-1.641
	C39.094,211.04,38.769,211.149,38.559,211.106L38.559,211.106z M41.841,201.384c0,0.715,0-1.432,0-2.146
	c0-0.43-0.571-1.141-0.758-1.389c-0.44-0.588-1.511-0.127-2.02,0c-0.646,0.162-0.884,0.859-0.884,1.516
	c0,0.975,0.154,1.57,0.505,2.271c0.229,0.457,0.776,0.705,1.137,0.885c0.475,0.236,0.848,0.813,1.01,1.137
	c0.271,0.541,0.698,0.393,0.884,1.137c0.145,0.578-0.253,1.535-0.253,2.271c0,0.387,0.712,1.344,1.011,1.643
	c0.334,0.334,0.145,1.59,0.252,2.02c0.221,0.883,0.184,1.99,0,2.904c-0.179,0.896-0.169,1.688-0.378,2.525
	c-0.176,0.701-0.127,1.418-0.127,2.146c0,0.736,0.127,1.309,0.127,2.021c0,0.863,0.205,1.578,0,2.398
	c-0.295,1.176,0.126,1.137,0.252,1.262c0.404,0.404,2.274-1.896,2.399-2.146c0.25-0.5,0.529-0.934,0.758-1.389
	c0.332-0.664,0.505-1.471,0.505-2.273c0-0.645,0.332-1.674,0.631-2.271c0.274-0.549-0.13-1.658-0.252-2.146
	c-0.216-0.861-0.508-1.4-0.632-2.021c-0.158-0.793-0.631-1.029-0.631-1.768c0-0.475-0.477-0.98-0.758-1.262
	c-0.366-0.367-0.379-1.434-0.379-2.021c0-0.693,0.029-1.398-0.126-2.02c-0.222-0.885-0.237-1.031-0.884-1.516
	c-0.661-0.496-0.623-0.361-1.011-1.137C42.111,201.796,41.968,201.595,41.841,201.384L41.841,201.384z M43.231,301.136
	c-0.133-0.131-1.226-0.4-1.642-0.504c-0.468-0.117-0.825-0.826-1.137-1.137c-0.434-0.434-1.257-0.82-2.021-1.01
	c-0.755-0.189-1.279-0.027-1.894,0.125c-0.696,0.176-0.946,0.799-1.39,1.391c-0.492,0.656,0.842,1.314,1.137,1.389
	c0.496,0.123,0.379,1.166,0.379,1.389c0,0.697-0.58,1.16-0.884,1.768c-0.201,0.4-1.09,0.711-1.389,1.01
	c-0.506,0.506-0.337,1.393-0.253,1.895c0.106,0.639,0.891,0.631,1.516,0.631c0.23,0,1.432-0.516,1.894-0.631
	c0.731-0.184,0.746-0.57,1.516-0.379c0.388,0.098,0.752,1.186,0.884,1.516c0.139,0.348,0.341,0.857,0.505,1.516
	c0.186,0.74-0.12,1.363-0.253,1.893c-0.216,0.865,1.729-0.484,2.525-0.883c0.032-0.016,0.689-1.195,0.758-1.264
	c0.468-0.467,1.36,1.256,1.516,1.516c0.54,0.9-0.683,1.035-1.137,1.264c-0.606,0.303-0.946,0.541-1.515,0.883
	c-0.678,0.406,0.157,1.326,0.252,1.516c0.268,0.535,0.19,1.074,0.632,1.516c0.443,0.443,0.107,0.875,0.884,1.262
	c0.572,0.287,1.191,0.271,1.768,0.127c0.756-0.189,1.568,0.273,2.146,0.506c0.747,0.299,1.108,1.148,1.263,1.768
	c0.144,0.572,0.449,0.729,0.253,1.514c-0.144,0.574-0.113,1.207,0,1.77c0.145,0.725,0.182,0.961,0.884,1.135
	c0.354,0.09,0.435-0.086,0.631-0.125c1.313,0.328,1.394-0.119,1.895,0.883c0.24,0.482,0.544,0.652,1.01,0.885
	c0.762,0.381,1.2,0.256,1.389,1.01c0.153,0.613,0.56,0.865,0.758,1.262c0.178,0.355-1.59,0.379-1.894,0.379
	c-0.446,0-1.212-0.523-1.642-0.631c-0.702-0.176-1.248-0.217-1.895-0.379c-0.747-0.186-1.823,0.525-2.272,0.885
	c-0.319,0.256-0.76,1.398-0.884,1.895c-0.256,1.021,0.597,1.066,0.884,1.641c0.231,0.463,1.189,0.893,1.515,1.137
	c0.555,0.416,1.886,1.006,2.399,1.262c0.977,0.488,1.571,0.736,2.273,1.264c0.461,0.346,1.035,1.615,1.136,2.02
	c0.14,0.559,0.686,1.082,1.011,1.516c0.499,0.666,0.535,1.131,0.757,2.02c0.23,0.92,0.417,1.795,0.632,2.652
	c0.187,0.748,0.21,0.969-0.126,1.643c-0.291,0.582-1.749,0.377-2.273,0.377c-0.979,0-0.321,0.564,0,0.885
	c0.561,0.561,0.893,1.02,1.389,1.516c0.429,0.428,1.927,0.758,2.525,0.758c0.793,0,1.371,0.09,2.021,0.252
	c0.92,0.23,1.401,0.287,2.273,0.506c0.712,0.178,1.551,0.711,2.146,1.01c0.88,0.439-1.402,1.34-1.642,1.389
	c-0.737,0.146-1.139,0.129-1.516,0.506c-0.293,0.293-0.171,1.316-0.252,1.641c-0.204,0.814,0.188,1.744,0.505,2.273
	c0.375,0.625,0.717,0.721,0.884,1.389c0.225,0.896,0.104,0.986,0.758,1.641c0.366,0.367,1.042,0.727,1.515,1.01
	c0.181,0.109,0.337,0.254,0.506,0.379c0.763,0.572,1.038,0.848,1.515,1.643c0.32,0.533,0.957,0.83,1.389,1.262
	c0.83,0.83,1.315,1.143,1.769,2.273c0.285,0.715,1.118,1.1,1.389,1.641c0.16,0.322,1.42,0.395,1.642,0.506
	c0.209,0.105,0.504,0.504,0.631,0.631c0.148,0.074,0.967,1.473,1.137,1.643c0.338,0.338,0.601,1.074,0.758,1.389
	c0.375,0.752,0.671,0.818,1.263,1.262c0.536,0.402,0.896,0.799,1.515,1.264c0.596,0.447,1,0.367,1.39,0.758
	c0.319,0.318,1.58-0.52,1.768-0.631c0.584-0.352,0.692-0.881,1.01-1.516c0.427-0.854,0.443-1.582,0.632-2.525
	c0.032-0.166,0-0.338,0-0.506c0-0.6,0.505-0.861,0.505-1.641c0-0.863,0.224-1.125,0-2.021c-0.187-0.746,0-1.643-0.126-2.398
	c-0.123-0.734-0.241-1.721-0.379-2.273c-0.146-0.582,0-1.414,0-2.02c0-0.629,0.104-1.428,0.252-2.021
	c0.099-0.391-0.286-1.961-0.505-2.398c-0.239-0.479-0.4-1.6-0.505-2.02c-0.173-0.691-0.835-0.941-1.011-1.643
	c-0.093-0.373-0.465-0.506-0.631-0.631c-0.237-0.947-2.109-1.365-2.399-2.525c-0.175-0.701-0.591-0.975-0.757-1.641
	c-0.119-0.477-1.468-1.635-1.895-2.146c-0.564-0.678-1.29-1.09-1.895-1.895c-0.581-0.775-0.817-0.807-1.01-1.768
	c-0.166-0.83-0.534-1.842-0.758-2.4c-0.2-0.5,0-1.598,0-2.146c0-0.758-0.046-1.582,0.127-2.271c0.196-0.785,0.391-1.365,0-2.146
	c-0.353-0.705-0.75-1.611-0.885-2.146c-0.142-0.568-0.505-1.139-0.757-1.77c-0.273-0.682-0.49-1.709-0.632-2.271
	c-0.198-0.793-0.184-1.447-0.631-1.895c-0.263-0.262-0.379-1.359-0.379-1.768c0-0.85-0.299-2.08-0.505-2.904
	c-0.164-0.654-0.093-1.381-0.253-2.02c-0.175-0.699-0.337-1.098-0.505-1.77c-0.133-0.529-0.439-0.787-0.884-1.01
	c-0.211-0.105-0.811-0.732-1.011-0.883c-1.14-0.57-1.758-2.113-2.904-2.4c-0.654-0.162-1.269-0.76-1.768-1.01
	c-0.474-0.236-0.627-0.629-1.136-0.883c-0.642-0.32-1.259-1.166-1.895-1.643c-0.5-0.375-1.103-1.303-1.389-2.02
	c-0.253-0.631-1.558-1.221-2.146-1.516c-0.735-0.367-1.418-1.158-1.895-1.516c-0.593-0.445-0.676-0.928-1.263-1.516
	c-0.388-0.387-0.907-1.033-1.263-1.389c-0.631-0.631-1.099-1.17-1.642-1.895c-0.465-0.619-1.412-1.152-1.894-1.514
	c-0.519-0.389-1.327-0.965-1.895-1.389c-0.626-0.471-1.076-0.697-1.515-1.137c-0.653-0.654-0.966-1.035-1.516-1.768
	c-0.583-0.777-0.722-1.436-1.389-1.77c-0.196-0.098-0.736-1.318-0.884-1.514c-0.389-0.518-1.058-0.92-1.516-1.264
	c-0.56-0.42-1.045-0.631-1.768-0.631c-1.203,0-2.59,0.063-3.535,0.252c-0.761,0.152-0.969,0.084-1.39,0.506
	c-0.343,0.344-0.505,1.777-0.505,2.273c0,0.887,0.325,1.441,0.758,2.02c0.32,0.428,0.134,1.545,0.252,2.02
	c0.246,0.982,1.05,1.055,1.642,0.758c0.587-0.293,1.304-0.65,1.769-0.883c0.444-0.223,1.042-0.791,1.389-1.137
	c0.722-0.723,1.185,0.697,1.263,1.01c0.156,0.623,0.468,1.244,1.263,1.641c0.651,0.326,1.271,0.826,1.894,1.137
	c0.747,0.373,0.745,0.607,1.137,1.389c0.261,0.523,0.379,0.934,0.379,1.516C43.862,300.56,44.18,301.327,43.231,301.136
	L43.231,301.136z M9.011,178.151c-0.658-0.18-1.665,0.402-2.146,0.884c-0.55,0.55-0.952,0.905-1.136,1.641
	c-0.148,0.594-0.27,1.204-0.379,1.642c-0.139,0.555,0.188,1.797,0.379,2.273c0.293,0.732,0.126,1.106,0.126,1.894
	c0,0.409-0.634,1.399-0.758,1.895c-0.205,0.82-0.31,1.742-0.505,2.525c-0.124,0.495-0.126,1.222-0.126,1.894
	c0,0.756,0.871,1.63,1.389,2.146c0.624,0.624,0.771,0.66,1.137,1.39c0.355,0.711,0.554,1.412,1.01,2.019
	c0.398,0.531,0.253,1.365,0.253,2.021c0,0.803-1.363,0.631-1.895,0.631c-0.592,0-0.884-0.455-0.884,0.631
	c0,0.473-0.253,1.092-0.253,1.768c0,0.75-0.172,1.078,0,1.77c0.12,0.477,0.581,0.908,0.758,1.262
	c0.276,0.553-0.27,1.207-0.379,1.641c-0.096,0.387-0.789,0.672-1.136,0.758c-0.527,0.133,0.125,1.514,0.126,1.516
	c0.229,0.459-0.76,0.766-0.884,1.264c-0.138,0.549,1.125,0.586,1.263,1.137c0.151,0.604-0.636,0.916-1.011,1.01
	c-0.584,0.146-0.331,1.215-0.757,1.641c-0.375,0.375-0.448,1.563-0.632,2.021c-0.278,0.695,0.331,1.166,0.505,1.514
	c0.28,0.561,0.504,1.137,0.884,1.516c0.137,0.137-0.321,1.668-0.378,1.895c-0.173,0.689-0.149,1.297,0,1.895
	c0.167,0.668,0.176,1.441,0,2.146c-0.158,0.629-0.137,1.6,0,2.146c0.121,0.484,0.692,0.881,0.884,1.262
	c0.326,0.654,0.148,1.561,0.379,2.021c0.319,0.639,1.202,1.436,1.641,2.02c0.536,0.715,0.972,1.564,1.263,2.146
	c0.371,0.74,0.76-0.381,1.137-0.883c0.425-0.566,0.505-1.053,0.505-1.895c0-0.693-0.036-1.367,0.127-2.021
	c0.149-0.598,0.104-1.479,0-1.893c-0.229-0.912-0.621-1.631-1.137-2.146c-0.432-0.432-0.698-1.271-0.884-1.643
	c-0.393-0.785-0.983-1.027-1.137-1.641c-0.159-0.637-0.104-1.303-0.252-1.895c-0.157-0.627-0.124-1.252-0.253-1.768
	c-0.161-0.645,0.135-1.295,0.253-1.768c0.158-0.635,0.573-0.842,1.136-1.264c0.327-0.244,0.274-1.223,0.379-1.641
	c0.24-0.959,0.844-0.293,1.263,0.127c0.466,0.465,0.861,0.998,1.389,1.262c0.587,0.293,0.911,0.352,1.39-0.127
	c0.317-0.316,0.446-1.02,0.631-1.389c0.356-0.711-0.25-1.131-0.505-1.641c-0.283-0.566-0.504-1.008-0.632-1.516
	c-0.106-0.43,0.95-0.238,1.516-0.379c0.389-0.098,0.448-1.287,0.505-1.516c0.186-0.74-0.102-1.416-0.252-2.02
	c-0.157-0.629-0.363-0.947-0.505-1.516c-0.095-0.375-1.078-0.361-1.516-0.252c-0.772,0.193-0.882,0.381-1.389-0.127
	c-0.569-0.568,0.815-1.057,1.136-1.137c0.849-0.211,0.812-0.086,1.011-0.883c0.212-0.852,0.814-1.291,1.515-1.643
	c0.599-0.299,0.756-0.502,1.263-1.01c0.563-0.563,0.673-1.023,1.137-1.641c0.426-0.568,0.815-1.172,1.263-1.768
	c0.484-0.647,1.131-1.257,1.642-1.769c0.471-0.471,0.728-0.854,1.137-1.263c0.379-0.379,1.18-0.589,1.768-0.884
	c0.868-0.434,1.011-0.759,1.515-1.768c0.417-0.834,0.643-1.41,1.011-2.146c0.327-0.655,0.355-1.343,0.631-1.894
	c0.387-0.773-0.285-0.758-1.136-0.758c-0.758,0-1.516,0-2.273,0c-0.788,0-1.304,0.101-1.768,0.379
	c-0.544,0.326-0.994,1.199-1.137,1.768c-0.179,0.718-0.548,1.306-1.01,1.768c-0.536,0.536-0.624,1.129-1.01,1.516
	c-0.839,0.839-2.144,1.134-3.157,1.642c-0.667,0.333-0.921,0.378-1.768,0.378c-0.465,0-0.993-0.976-1.137-1.263
	c-0.213-0.425-0.308-1.232-0.379-1.515c-0.187-0.746-0.869-0.508,1.011-0.884c0.84-0.168,1.756,0.129,2.272,0
	c0.691-0.173,1.213-0.48,1.768-0.758c0.501-0.251,0.483-0.672,0.632-1.263c0.091-0.364,0.957-0.705,1.136-0.884
	c0.459-0.458,0.389-1.94,0.506-2.525c0.132-0.659,0.089-1.229-0.127-1.768c-0.248-0.62-0.82-1.042-1.263-1.263
	c-0.517-0.259-1.485,0.98-1.642,1.136c-0.524,0.525-1.068,0.69-1.515,1.137c-0.399,0.399-1.64,0.379-2.021,0.379
	c-0.23,0,1.089-0.963,2.272-2.146c0.392-0.392,0.506-0.979,0.506-1.642c0-0.791-0.24-1.236-0.506-1.768
	c-0.298-0.597-0.858-0.505-1.642-0.505c-0.813,0-1.005-0.122-1.389-0.506C9.447,178.965,9.179,178.571,9.011,178.151L9.011,178.151z
	 M19.206,4.501C99.179,52.496,166.643,87.234,232.74,111.81c-26.447,70.062-39.706,109.699-53.034,149.492
	c0.092,0.215,0.196,0.418,0.4,0.691c0.423,0.563,0.545,1.09,0.884,1.768c0.277,0.555,0,1.838,0,2.525
	c0,0.535-0.784,0.582-1.136,0.758c-0.564,0.281-0.96,0.305-1.137,1.01c-0.17,0.678,0.255,1.02,0.379,1.516
	c0.097,0.389,0.159,1.27,0.252,1.641c0.157,0.627,0.567,0.967,0.884,1.391c0.389,0.516-0.097,1.164,0.379,1.641
	c0.284,0.283,1.292,0.291,1.642,0.379c0.607,0.152,1.217,0.08,1.642,0.506c0.384,0.383,0.693,0.818,1.01,1.135
	c0.448,0.449,0,1.908,0,2.4c0,0.656,0.159,1.328,0.379,1.768c0.261,0.521,0.559,0.611,0.884,1.262
	c0.122,0.244,1.525,0.254,1.895,0.254c0.363,0,1.232-0.869,1.516-1.012c0.717-0.357,0.529-0.227,1.136,0.379
	c0.364,0.365,0.787,0.748,1.137,1.012c0.296,0.221,0.64,1.521,0.884,1.768c0.177,0.176-0.753,1.252-0.884,1.514
	c-0.285,0.57-0.26,1.107-0.126,1.643c0.155,0.623,0.378,1.238,0.378,1.895c0,0.527,0.481,0.859,0.758,1.137
	c0.484,0.482,0.727,0.852,1.137,1.262c0.599,0.598,0.704,0.922,0.884,1.641c0.041,0.164-0.216,1.412-0.126,1.77
	c0.165,0.662,0.126,1.412,0.126,2.02c0,0.713-0.258,1.285-0.379,1.768c-0.224,0.896-0.605,0.936-0.252,1.641
	c0.288,0.576,0.476,0.895,0.631,1.516c0.139,0.557-0.754,0.877-1.01,1.389c-0.225,0.449-0.127,1.189-0.127,1.77
	c0,1.063,1.814,0.355,2.021,0.252c0.521-0.26,0.751-0.598,1.39-0.758c0.709-0.178,0.956-0.217,1.136,0.506
	c0.023,0.092,1.451,0.662,1.642,0.756c0.407,0.205,0.332,1.199,0.253,1.516c-0.159,0.635-0.614,1.002-1.137,1.264
	c-0.502,0.25-0.387,0.979-0.253,1.516c0.145,0.574,0.506,0.779,0.506,1.514c0,0.572,0.828,0.758,1.389,0.758
	c0.447,0,0.688,1.418,1.137,1.643c0.641,0.32,1.009-0.127,1.768-0.127c0.168,0,0.337,0,0.505,0c1.848,0,2.021,1.98,2.021,3.41
	c0,1.318-0.409,1.863,0.505,2.777c1.011,1.012,1.01,1.217,1.01,3.029c0,1.572,0.252,2.521,0.506,3.537
	c0.35,1.4,2.503-0.047,2.777-0.254c1.327-0.994,1.768,0.398,1.768,1.516c0,1.289,0.506,2.08,0.506,3.535
	c0,0.764,1.156,1.916,1.515,2.273c0.963,0.963,0.971,1.57,1.263,3.031c0.191,0.957-0.252,2.287-0.252,3.535
	c0,1.059,1.846,1.428,2.525,1.768c0.146,0.072,0.684,2.885,0.757,3.031c0.556,1.109,1.558,1.346,2.021,2.271
	c0.447,0.895,1.086,1.416,1.516,2.273c0.577,1.154-0.253,2.227-0.253,3.535c0,1.082,1.378,1.631,2.021,2.273
	c0.679,0.68,0.762,2.289,1.01,3.283c0.28,1.119-0.058,2.754-0.252,3.535c-0.379,1.516,2.764,0.385,3.03,0.252
	c0.642-0.32,0.601,0.201,0.758,0.252c0.649-0.324,0.236,1.436,0.379,2.148c0.105,0.527,0.648,1.152,0.884,1.389
	c0.302,0.301,0.406,1.371,0.505,1.768c0.168,0.672-0.012,1.469,0.126,2.02c0.167,0.668,0.379,1.281,0.379,2.146
	c0,0.982-0.028,1.377-0.253,2.273c-0.173,0.691-0.378,1.248-0.378,2.02c0,0.986,0.126,1.912,0.126,2.904
	c0,0.773,0.133,1.238,0,1.768c-0.162,0.646-0.955,0.914-1.137,1.643c-0.191,0.766,0.34,1.232,0.505,1.895
	c0.141,0.559-0.485,1.189-0.884,1.389c-0.571,0.285-1.03,0.523-1.515,1.01c-0.647,0.646-0.758,0.492-0.758,1.262
	c0,0.514,1.034,0.418,1.389,0.506c0.487,0.121,0.774,0.775,1.011,1.01c0.339,0.34-0.196,1.332-0.506,1.643
	c-0.398,0.398-0.528,1.232-0.631,1.641c-0.174,0.693,0.267,1.291,0.505,1.768c0.23,0.461,0.532,1.191,0.758,1.643
	c0.344,0.688,0.533,1.037,1.01,1.514c0.491,0.492,0.603,0.744,1.137,1.012c0.491,0.244,0.825,0.951,1.137,1.262
	c0.499,0.5,0.669,0.795,1.136,1.264c0.474,0.473,0.505,0.928,0.505,1.641c0,0.58,0.258,1.154,0.379,1.641
	c0.079,0.314,0.173,0.5,0.21,0.676c-76.876-18.123-124.905-37.291-136.694-42.277c-0.017-0.314-0.077-0.576-0.133-0.799
	c-0.169-0.678-0.797-1.061-1.071-1.607c-0.36-0.721-0.616-1.152-1.071-1.607c-0.422-0.422-0.603-0.781-0.893-1.072
	c-0.238-0.236-0.477-0.475-0.715-0.713c-0.525-0.525-0.099-2.105,0-2.5c0.303-1.211,0.282-1.354,1.071-2.143
	c0.506-0.506,1.398-1.004,1.965-1.43c0.381-0.285,0.8-2.127,0.893-2.5c0.267-1.064,0.418-1.723,0.179-2.678
	c-0.352-1.404,0.035-1.357-1.25-0.715c-0.213,0.107-1.285,1.285-1.786,1.785c-0.701,0.703-1.355,1.027-2.321,1.607
	c-0.57,0.342-1.846-0.209-2.5-0.535c-0.843-0.422-0.825-1.16-1.071-2.143c-0.2-0.803,0.302-1.676,0.536-2.143
	c0.452-0.906,0.714-1.057,0.714-2.322c0-0.809-0.357-1.375-0.357-2.322c0-0.951,0-1.904,0-2.855c0-1.027,0.09-1.25-0.356-2.145
	c-0.053-0.104-2.084,1.326-2.5,1.43c-0.855,0.213-1.644,0.57-2.144,1.07c-0.834,0.836-1.24,0.227-2.143,0
	c-0.782-0.195-1.6-0.85-2.321-1.428c-0.616-0.494-0.688-1.326-0.893-2.143c-0.201-0.805-0.715-1.246-0.715-2.5
	c0-0.891-0.729-1.639-1.071-2.322c-0.38-0.758,0.198-2.002,0.357-2.32c0.203-0.408,1.621-0.629,1.964-0.715
	c1.258-0.314,1.607-0.531,1.607-1.785c0-0.994,0.179-1.996,0.179-3.037c0-1.271,0.351-1.475-0.894-1.785
	c-1.141-0.285-1.895-0.145-2.678-0.535c-0.869-0.434-0.514-1.52-0.357-2.143c0.287-1.15-1.025-1.229-1.786-1.607
	c-0.832-0.416-1.955-0.621-2.856-1.072c0.032-0.064-0.529-0.531-0.625-0.58c-0.252-0.125-0.536-0.469-0.804-0.67
	c-0.43-0.32-1.02-0.459-1.518-0.758c-0.43-0.258-0.699-0.381-1.116-0.715c-0.237-0.189-0.87-0.178-1.161-0.178
	c-0.308,0-0.692-0.174-0.938-0.357c-0.372-0.279-0.907-0.41-1.339-0.625c-0.506-0.254-1.017-0.635-1.519-0.76
	c-0.251-0.063-0.713-0.355-0.981-0.49c-0.448-0.225-0.91-0.48-1.384-0.67c-0.439-0.176-0.704-0.566-1.116-0.67
	c-0.174-0.043-0.53-0.398-0.715-0.49c-0.229-0.115-0.411-0.385-0.625-0.492c-0.293-0.146-0.441-0.451-0.223-0.67
	c0.228-0.227,0.914-0.299,1.205-0.357c0.45-0.09,1.107-0.012,1.518,0.09c0.377,0.094,0.979,0.117,1.34,0.045
	c0.319-0.064,0.644-0.061,0.938-0.135c0.36-0.09,0.628-0.137,0.848-0.355c0.148-0.148,0.155-0.328,0.179-0.447
	c0.035-0.174-0.276-0.615-0.313-0.758c-0.061-0.244,0.005-0.438-0.089-0.625c-0.092-0.186,0.123-0.473,0.178-0.582
	c0.113-0.227,0.09-0.463,0.09-0.713c0-0.404-0.737-1.012-0.938-1.162c-0.508-0.381-0.814-0.568-1.518-0.803
	c-0.419-0.141-0.432-0.475-0.536-0.893c-0.067-0.271,1.726-0.268,1.965-0.268c0.674,0,0.896-0.135,1.428-0.27
	c0.369-0.092-0.315-0.986-0.446-1.16c-0.336-0.449-0.779-0.779-1.071-1.07c-0.464-0.465-0.748-0.688-1.339-0.982
	c-0.404-0.203-0.468-0.357-1.072-0.357c-0.666,0-1.147,0.127-1.606,0.357c-0.422,0.211-0.563,0.342-1.071,0.088
	c-0.544-0.271-0.793-0.912-1.429-1.07c-0.219-0.055-0.564-1.189-0.715-1.34c-0.457-0.457-0.884-0.705-1.25-1.07
	c-0.313-0.314-1.102-0.209-1.339-0.09c-0.198,0.1-0.373,0.977-0.446,1.16c-0.173,0.432-0.194,0.695-0.625,0.805
	c-0.636,0.158-1.075-0.145-1.607-0.357c-0.662-0.266-0.787-1.234-1.161-1.607c-0.593-0.594-1.27-1.455-1.785-2.143
	c-0.479-0.639-0.798-1.197-1.25-1.875c-0.396-0.596-0.804-1.113-0.804-1.787c0-0.295-0.179-0.838-0.179-1.25
	c0-0.498,0.09-1.074,0.09-1.605c0-0.563-0.121-1.127,0-1.607c0.114-0.457,0.575-0.723,0.803-0.893
	c0.452-0.34,1.76,0.471,2.144,0.625c0.41,0.164,0.766,0.383,1.25,0.625c0.652,0.326,1.918-0.084,2.054-0.625
	c0.125-0.504-0.152-0.93-0.357-1.34c-0.103-0.205-1.343-0.395-1.607-0.447c-0.542-0.107-0.992-0.361-1.518-0.625
	c-0.597-0.297-0.705-0.465-0.446-0.98c0.194-0.391,1.199-0.537,1.606-0.537c0.563,0,1.153,0.043,1.697,0.18
	c0.449,0.111,0.844,0.154,1.25,0.357c0.494,0.246,0.781,0.494,1.428,0.625c0.575,0.113,0.355-0.541,0.269-0.715
	c-0.211-0.422-0.536-0.807-0.625-1.16c-0.11-0.443-0.091-0.891,0-1.25c0.101-0.404,0.334-0.531,0.714-0.625
	c0.686-0.172,0.766-0.053,1.25-0.537c0.37-0.369,0.288-1.258,0.179-1.695c-0.132-0.529-0.262-0.619-0.625-0.982
	c-0.298-0.299-1.141-0.357-1.607-0.357c-0.327,0-1.176,0.902-1.606,1.16c-0.44,0.264-0.984,0.537-1.34,0.625
	c-0.491,0.123-0.744-0.207-0.982-0.445c-0.437-0.438-0.446-0.484-0.446-1.162c0-0.623,0.277-1.445,0.536-1.963
	c0.307-0.615,0.748-1.029,0.893-1.607c0.126-0.506,0.545-1.084,0.804-1.43c0.306-0.406,0.351-0.797,0.625-1.07
	c0.503-0.672,0.357-2.682,0.357-3.572c0-1.08,1.011-1.486,1.429-2.32c0.507-1.016,1.009-1.537,1.25-2.5
	c0.232-0.932,0.356-1.416,0.356-2.5c0-0.586-0.535-1.533-0.535-2.5c0-0.609-2.035-0.357-2.5-0.357c-1.358,0-1.022,0.227-1.965-0.715
	c-0.782-0.781,0.552-1.477,1.071-1.607c0.984-0.246,0.037-1.748-0.178-1.963c-0.545-0.545-1.403-0.537-2.322-0.537
	c-1.577,0-1.644-0.197-2.678-0.713c-1.136-0.568-1.33-0.676-1.607-1.787c-0.161-0.646,0.728-1.633,0.893-1.963
	c0.396-0.793,0.563-1.377,0-2.5c-0.532-1.064-1.021-1.23-1.25-2.145c-0.06-0.238-0.119-0.475-0.179-0.713
	c-0.221-0.887-0.535-1.436-0.535-2.68c0-1.059,0.411-1.715,0.714-2.32c0.479-0.959,0.463-1.178,1.25-1.965
	c0.67-0.67,1.221-1.043,1.786-1.607c0.693-0.693,0.869-1.396,1.429-2.143c0.57-0.76,1.057-1.4,1.428-2.143
	c0.301-0.602,0.373-1.49,0.536-2.143c0.245-0.979-0.708-1.65-1.25-1.787c-0.753-0.188-0.987-0.137-1.429-0.355
	c-0.48-0.121-0.438-2.65-0.535-3.037c-0.166-0.662-0.179-1.594-0.179-2.5c0-0.971-0.536-1.156-0.536-2.32
	c0-0.82-0.363-1.621-0.714-2.322c-0.368-0.736-0.872-1.387-1.25-2.143c-0.381-0.762-0.536-1.051-0.536-2.143
	c0-1.08-0.161-1.895-0.357-2.68c-0.258-1.035,0.548-1.682,0.894-2.143c0.229-0.305,1.645-0.732,1.964-0.893
	c0.943-0.471,1.176-0.416,1.429-1.428c0.204-0.817-1.19-1.191-1.786-1.787c-0.586-0.586-1.262-0.905-1.785-1.429
	c-0.546-0.545-0.553-1.673-0.715-2.321c-0.237-0.952-0.193-1.576,0.179-2.321c0.408-0.816,1.045-1.045,1.607-1.607
	c0.61-0.609,1.255-1.259,1.607-1.964c0.389-0.777,1.109-1.288,1.606-1.786c0.674-0.673,1.09-0.517,1.607,0
	c0.708,0.708,0.799-0.083,1.607-0.893c0.48-0.48,0.696-1.035,1.071-1.785c0.326-0.652,0.896-1.076,1.429-1.607
	c0.602-0.602,1.146-0.968,1.607-1.429c0.558-0.559,0.118-1.491-0.089-2.164l0.591-0.915c0,0,1.516-0.631,2.146-1.136
	c0.632-0.506,0.379-1.516,0.758-2.146c0.379-0.632,1.768-4.041,1.768-5.178c0-1.136,2.778-5.177,3.536-5.935s2.651-3.283,3.03-4.546
	s0-3.282-0.379-3.914c-0.379-0.631-2.146-1.263-3.535-2.904c-1.39-1.642-1.769-4.293-2.399-5.935
	c-0.632-1.642-1.137-2.904-1.768-4.167c-0.632-1.263-3.788-4.04-5.178-5.051c-1.389-1.01-2.777-3.156-3.282-4.167
	c-0.506-1.01-0.021-5.235,0.336-6.128c0.357-0.894,0.536-1.786,0.715-3.036c0.178-1.25-0.179-3.214-0.536-3.929
	c-0.357-0.714-0.179-0.714,0.179-1.785c0.357-1.072,1.607-1.786,2.5-3.572c0.893-1.785,0.357-3.571-0.179-5.356
	c-0.536-1.786-0.714-3.036-0.357-4.644c0.357-1.606,0.536-3.035,0.357-5c-0.179-1.964-0.357-3.214-0.714-5.178
	c-0.357-1.965,0.356-3.929,0.356-5.894c0-1.964,0.894-6.964,1.429-8.571c0.536-1.607,0.715-5.535,0.536-6.785
	s-0.715-2.857-0.715-2.857s-0.893-3.215-0.714-4.286s0.535-3.571,0.535-4.464s-1.428-2.679-1.785-3.75s-0.536-2.857,0-4.107
	c0.535-1.25,1.607-4.107,1.607-5.357s-1.072-1.785-1.429-2.856c-0.357-1.071-0.715-8.215-0.715-8.215h-0.535
	c0,0-4.286,0.536-5.357,0.536s-4.286-1.429-4.286-1.429s-3.393,0.714-3.571,1.786c-0.179,1.071-2.321,1.428-2.321,1.428
	l-3.929,0.715c0,0-1.785,2.321-2.5,2.679c-0.714,0.356-1.429-0.357-2.5-1.25c-1.071-0.894-3.393-0.179-3.393-0.179l-3.393,0.893
	l-1.965-1.25l0.536-2.5l1.25-3.571c0,0-0.179-2.679-0.536-3.929c-0.356-1.25-1.071-2.5-1.071-2.5l-0.714-2.321L19.206,4.501
	L19.206,4.501z"/>
<path id="Alberta_2_" fill="#B30000" stroke="#FFFFFF" stroke-width="5" stroke-miterlimit="10" d="M350.278,161.46
	c1.067-5.222,2.138-10.449,3.211-15.681c-41.35-8.071-80.851-19.194-120.811-33.993c-26.385,70.085-39.645,109.722-52.973,149.515
	c0.092,0.215,0.196,0.418,0.4,0.691c0.423,0.563,0.545,1.09,0.884,1.768c0.277,0.555,0,1.838,0,2.525
	c0,0.535-0.784,0.582-1.136,0.758c-0.564,0.281-0.96,0.305-1.137,1.01c-0.17,0.678,0.255,1.02,0.379,1.516
	c0.097,0.389,0.159,1.27,0.252,1.641c0.157,0.627,0.567,0.967,0.884,1.391c0.389,0.516-0.097,1.164,0.379,1.641
	c0.284,0.283,1.292,0.291,1.642,0.379c0.607,0.152,1.217,0.08,1.642,0.506c0.384,0.383,0.693,0.818,1.01,1.135
	c0.448,0.449,0,1.908,0,2.4c0,0.656,0.159,1.328,0.379,1.768c0.261,0.521,0.559,0.611,0.884,1.262
	c0.122,0.244,1.525,0.254,1.895,0.254c0.363,0,1.232-0.869,1.516-1.012c0.717-0.357,0.529-0.227,1.136,0.379
	c0.364,0.365,0.787,0.748,1.137,1.012c0.296,0.221,0.64,1.521,0.884,1.768c0.177,0.176-0.753,1.252-0.884,1.514
	c-0.285,0.57-0.26,1.107-0.126,1.643c0.155,0.623,0.378,1.238,0.378,1.895c0,0.527,0.481,0.859,0.758,1.137
	c0.484,0.482,0.727,0.852,1.137,1.262c0.599,0.598,0.704,0.922,0.884,1.641c0.041,0.164-0.216,1.412-0.126,1.77
	c0.165,0.662,0.126,1.412,0.126,2.02c0,0.713-0.258,1.285-0.379,1.768c-0.224,0.896-0.605,0.936-0.252,1.641
	c0.288,0.576,0.476,0.895,0.631,1.516c0.139,0.557-0.754,0.877-1.01,1.389c-0.225,0.449-0.127,1.189-0.127,1.77
	c0,1.063,1.814,0.355,2.021,0.252c0.521-0.26,0.751-0.598,1.39-0.758c0.709-0.178,0.956-0.217,1.136,0.506
	c0.023,0.092,1.451,0.662,1.642,0.756c0.407,0.205,0.332,1.199,0.253,1.516c-0.159,0.635-0.614,1.002-1.137,1.264
	c-0.502,0.25-0.387,0.979-0.253,1.516c0.145,0.574,0.506,0.779,0.506,1.514c0,0.572,0.828,0.758,1.389,0.758
	c0.447,0,0.688,1.418,1.137,1.643c0.641,0.32,1.009-0.127,1.768-0.127c0.168,0,0.337,0,0.505,0c1.848,0,2.021,1.98,2.021,3.41
	c0,1.318-0.409,1.863,0.505,2.777c1.011,1.012,1.01,1.217,1.01,3.029c0,1.572,0.252,2.521,0.506,3.537
	c0.35,1.4,2.503-0.047,2.777-0.254c1.327-0.994,1.768,0.398,1.768,1.516c0,1.289,0.506,2.08,0.506,3.535
	c0,0.764,1.156,1.916,1.515,2.273c0.963,0.963,0.971,1.57,1.263,3.031c0.191,0.957-0.252,2.287-0.252,3.535
	c0,1.059,1.846,1.428,2.525,1.768c0.146,0.072,0.684,2.885,0.757,3.031c0.556,1.109,1.558,1.346,2.021,2.271
	c0.447,0.895,1.086,1.416,1.516,2.273c0.577,1.154-0.253,2.227-0.253,3.535c0,1.082,1.378,1.631,2.021,2.273
	c0.679,0.68,0.762,2.289,1.01,3.283c0.28,1.119-0.058,2.754-0.252,3.535c-0.379,1.516,2.764,0.385,3.03,0.252
	c0.642-0.32,0.601,0.201,0.758,0.252c0.649-0.324,0.236,1.436,0.379,2.148c0.105,0.527,0.648,1.152,0.884,1.389
	c0.302,0.301,0.406,1.371,0.505,1.768c0.168,0.672-0.012,1.469,0.126,2.02c0.167,0.668,0.379,1.281,0.379,2.146
	c0,0.982-0.028,1.377-0.253,2.273c-0.173,0.691-0.378,1.248-0.378,2.02c0,0.986,0.126,1.912,0.126,2.904
	c0,0.773,0.133,1.238,0,1.768c-0.162,0.646-0.955,0.914-1.137,1.643c-0.191,0.766,0.34,1.232,0.505,1.895
	c0.141,0.559-0.485,1.189-0.884,1.389c-0.571,0.285-1.03,0.523-1.515,1.01c-0.647,0.646-0.758,0.492-0.758,1.262
	c0,0.514,1.034,0.418,1.389,0.506c0.487,0.121,0.774,0.775,1.011,1.01c0.339,0.34-0.196,1.332-0.506,1.643
	c-0.398,0.398-0.528,1.232-0.631,1.641c-0.174,0.693,0.267,1.291,0.505,1.768c0.23,0.461,0.532,1.191,0.758,1.643
	c0.344,0.688,0.533,1.037,1.01,1.514c0.491,0.492,0.603,0.744,1.137,1.012c0.491,0.244,0.825,0.951,1.137,1.262
	c0.499,0.5,0.669,0.795,1.136,1.264c0.474,0.473,0.505,0.928,0.505,1.641c0,0.58,0.258,1.154,0.379,1.641
	c0.08,0.32,0.011,0.416,0.087,0.623c19.474,4.584,40.784,9.104,63.971,13.264c16.05-81.416,32.451-163.717,49.51-247.29
	c-0.551,0.21-0.824,0.089-1.213-0.105c-0.283-0.142-0.693-0.279-0.973,0c-0.334,0.334-0.884,0.505-0.884,1.061
	c0,0.502,0.177,0.914,0.177,1.503c0,0.672-0.059,0.991-0.441,1.502c-0.351,0.467-0.619,0.457-0.619,1.061
	c0,0.212-0.064,0.978-0.53,0.885c-0.196-0.04-1.202,0.035-1.326-0.089c-0.103-0.104-0.477-0.973-0.618-0.973
	c-0.688,0-1.118,0.266-1.944,0.266c-0.501,0-1.002,0-1.503,0c-0.523,0-1.096,0.258-1.503,0.177c-0.581-0.116-1.201-0.53-1.768-0.53
	c-0.628,0-1.224-0.239-1.68-0.354c-0.581-0.146-0.629-0.308-0.795-0.973c-0.104-0.416-0.473-0.94-0.354-1.414
	c0.185-0.739,0.37-1.353,0.972-1.503c0.405-0.101,1.127-0.077,1.503-0.265c0.437-0.219,0.697-0.528,1.061-0.619
	c0.48-0.12,1.32,0.135,1.856,0c0.525-0.131,1.021-0.343,1.237-0.884c0.126-0.314,0.337-0.787,0.707-0.972
	c0.427-0.214,0.454-0.581,0.884-0.796c0.492-0.246,0.566-0.587,0.707-1.149c0.129-0.513,0.255-0.873,0.707-1.325
	c0.425-0.425,1.127-0.597,1.503-0.973c0.213-0.213,1.345-0.986,1.856-0.884c0.147,0.029,0.296,0.052,0.441,0.089
	c0.564,0.141,0.94,0.029,1.414-0.089c0.431-0.107,0.674-0.231,1.062-0.618c0.313-0.313,0.333-0.845,0.53-1.238
	c0.223-0.445,0.554-0.714,1.148-0.795C349.984,161.5,350.13,161.481,350.278,161.46L350.278,161.46z"/>
<path id="Saskatchewan_2_" fill="#B30000" stroke="#FFFFFF" stroke-width="5" stroke-miterlimit="10" d="M454.947,159.358
	c-35.784-2.882-69.277-7.331-101.594-13.629c0,0,32.316,6.298,0.045,0.032c-1.008,5.173-2.057,10.308-3.104,15.438
	c0,0,1.047-5.13,0.05,0.098c0.459,0.146,0.678-0.116,1.05-0.34c0.417-0.25,0.701-0.264,1-0.563c0.252-0.252,0.42-0.351,0.625-0.625
	c0.309-0.41,0.342-1.021,0.438-1.5c0.077-0.385,0.619-0.806,0.875-1.063c0.063-0.063,0.125-0.125,0.188-0.188
	c0.344-0.344,0.026-0.583-0.063-0.938c-0.099-0.396,0.04-0.804,0.188-1c0.322-0.429,1.072-0.313,1.563-0.313
	c0.415,0,1.109-0.313,1.688-0.313c0.56,0,0.866-0.277,1.188-0.438c0.42-0.21,0.812-0.344,1.25-0.563
	c0.391-0.195,0.534-0.159,0.75-0.375c0.202-0.201-0.06-0.622-0.188-0.75c-0.24-0.24-0.245-0.559-0.5-0.813
	c-0.216-0.216-0.183-0.643-0.125-0.875c0.1-0.398,0.307-0.452,0.75-0.563c0.517-0.129,0.899-0.318,1.375-0.438
	c0.467-0.117,0.699-0.125,1.25-0.125c0.329,0,0.788,0.057,1.063,0.125c0.626,0.156,1.272,0.125,1.938,0.125
	c0.317,0,0.313,0.458,0.313,0.563c0,0.28,1.349,0.227,1.563,0.313c0.26,0.104,1.058,0.125,1.313,0.125c0.412,0,1.21,0.167,1.5,0.313
	c0.245,0.122,0.188,0.754,0.188,1c0,0.21-0.465,0.465-0.625,0.625c-0.353,0.353-0.29,0.369-1.063,0.563
	c-0.083,0.021-0.166,0.042-0.25,0.063c-0.542,0.136-1.041,0.045-1.688-0.063c-0.446-0.074-1.075-0.044-1.5,0.063
	c-0.498,0.125-0.716,0.369-0.875,0.688c-0.142,0.284-0.779,0.381-1.063,0.438c-0.58,0.116-0.702,0.155-0.938,0.625
	c-0.162,0.326-0.256,0.575-0.375,0.813c-0.138,0.276-0.493,0.496-0.75,0.625c-0.432,0.216-0.781,0.459-1,0.75
	c-0.158,0.212-0.044,0.904,0,1.125c0.102,0.507,0.237,0.425,0.563,0.75c0.105,0.104,0.943,0.267,1.125,0.313
	c0.423,0.105,0.994-0.03,1.375-0.125c0.374-0.094,1.145-0.832,1.438-1.125c0.313-0.313,1.085-0.07,1.438,0
	c0.872,0.174,0.69-0.061,1.125,0.375c0.356,0.355,0.375,0.627,0.375,1.25c0,0.568-0.348,0.618-0.875,0.75
	c-0.512,0.128-0.878,0.444-1.063,0.813c-0.233,0.467-0.538,0.765-0.688,1.063c-0.125,0.25-0.017,0.835-0.063,1.063
	c-0.121,0.607-0.181,0.604,0.375,0.938c0.53,0.318,0.96,0.191,1.438,0c0.351-0.141,0.657-0.712,0.875-0.875
	c0.387-0.29,0.581-0.625,1.188-0.625c0.739,0,0.849-0.446,1.313-0.563c0.472-0.118,1.105-0.286,1.5-0.188
	c0.517,0.129,1.002,0.501,1.375,0.688c0.432,0.216,1.008,0.174,1.563,0.313c0.647,0.162,1.476,0.313,2.063,0.313
	c0.415,0,1.102,0.091,1.5,0.25c0.57,0.228,0.535,0.253,1,0.625c0.288,0.23,0.286,0.473,0.563,0.75
	c0.288,0.287,0.446,0.428,0.688,0.75c0.423,0.563,0.723,1.071,1.438,1.25c0.645,0.161,1.306,0.677,2,0.875
	c0.146,0.042,0.292,0.083,0.438,0.125c0.815,0.232,2.123,0.25,2.938,0.25c0.665,0,0.841,0.084,1.313,0.438
	c0.318,0.238,0.753,0.657,1.313,0.938c0.909,0.454,1.827,0.733,2.813,1.063c0.61,0.203,0.987,0.175,1.063,0.25
	c0.02,0.02-0.534,0.173-1.063,0.438c-0.421,0.211-0.951-0.223-1.313-0.313c-0.557-0.14-1.147-0.438-1.688-0.438
	c-0.425,0-1.045-0.375-1.625-0.375c-0.622,0-1.317-0.093-1.938,0.063c-0.564,0.142-1.419,0.188-2,0.188
	c-0.521,0-0.995-0.327-1.438-0.438c-0.386-0.097-0.734-0.359-1-0.625c-0.293-0.294-0.785-0.285-1.125-0.625
	c-0.28-0.28-1.609-0.25-2-0.25c-0.439,0-0.973-0.313-1.5-0.313c-0.073,0-0.529,0.686-0.625,0.813
	c-0.295,0.394-0.452,0.904-0.625,1.25c-0.153,0.307-1.156,0.313-1.438,0.313c-0.208,0-0.416,0-0.625,0
	c-0.549,0-0.855,0.134-1.438,0.25c-0.354,0.071-1.015,0-1.375,0c-0.42,0-0.744-0.188-1.188-0.188c-1.244,0-2.626-0.604-3.875-0.813
	c-0.768-0.128-1.057-0.106-1.75,0.125c-0.505,0.168-0.682-0.06-1.063-0.25c-0.402-0.201-0.896-0.313-1.438-0.313
	c-0.559,0-1.067-0.063-1.625-0.063c-0.508,0-0.888-0.113-1-0.563c-0.081-0.325-0.609-0.494-0.938-0.625
	c-0.104-0.042-0.208-0.083-0.313-0.125c-0.509-0.204-0.777-0.13-1.063,0.25c-0.233,0.312-0.57,0.473-0.875,0.625
	c-0.204,0.103-0.034,0.384-0.5,0.5c-0.336,0.084-0.82,0-1.125,0c-0.321,0-0.758,0.063-1.125,0.063c-0.364,0-0.628,0.128-0.875,0.375
	c-0.407,0.407-0.508,0.285-1.188,0.625c-0.602,0.301-1.452-0.004-1.875,0.25c-0.232,0.14-0.563,0.734-0.75,0.875
	c-0.23,0.173-0.563,0.141-0.875,0.063c-0.02-0.005-0.218,0-0.451-0.076c-17.225,83.835-33.429,165.687-49.446,247.023
	c41.103,7.51,87.827,14.02,139.44,18.064C443.696,344.372,448.128,252.444,454.947,159.358L454.947,159.358z"/>
<path id="Manitoba_2_" fill="#B30000" stroke="#FFFFFF" stroke-width="5" stroke-miterlimit="10" d="M454.997,159.276
	c-6.826,93.145-11.297,185.04-16.797,277.481c31.861,2.477,65.596,4.084,101.008,4.414l0.312-97.305l83.6-101.809
	c-0.264-0.068-0.5-0.102-0.725-0.102c-0.832,0-1.681,0.455-2.5,0.25c-1.063-0.266-2.161-0.189-3.25-0.625
	c-0.853-0.342-1.536-0.76-2.5-1c-0.96-0.24-1.807-0.277-2.75-0.75c-0.794-0.396-1.289-0.916-2.125-1.25
	c-1.063-0.426-1.385-1-2.625-1c-0.083,0-0.168,0.014-0.25,0c-0.872-0.145-1.434-0.309-2-0.875c-0.507-0.508-0.432-0.932-1-1.5
	c-0.483-0.482-0.845-0.789-1.625-1.375c-0.338-0.254-1.229-0.908-1.875-1c-1.122-0.16-1.794-0.377-2.625-1
	c-0.732-0.549-1.409-0.875-2.375-0.875c-1.093,0-1.16,0.268-1.875,0.625c-0.592,0.297-1.839,1.055-2.625,1.25
	c-1.036,0.26-1.94,0.986-3,1.25c-0.737,0.186-1.59,0.67-2.25,1c-0.564,0.283-1.116,0.619-1.625,1
	c-0.741,0.557-1.521,1.949-2.125,2.25c-0.592,0.297-1.585,1.623-2.25,1.125c-0.646-0.484-0.838-1.633-2.375-1.25
	c-0.789,0.197-0.468,0.859-1.25,1.25c-0.44,0.221-2.804,1.984-2.375,1.125c0.261-0.521,0.436-1.561,0.875-2
	c0.372-0.371,1.24-0.832,1.375-1.375c0.153-0.613-0.273-0.883-0.125-1.625c0.154-0.77,0-1.414,0-2.125
	c0-0.781-0.06-1.637,0.125-2.375c0.135-0.539,0.523-1.279,0.375-1.875c-0.152-0.611-0.355-0.756-0.75-1.25
	c-0.149-0.188-0.299-0.373-0.448-0.561c0,0.168,0.041,0.668,0,0.506c-0.315-1.262-0.363-1.879-1.263-2.779
	c-0.96-0.959-1.263-1.367-1.263-3.283c0-1.527,0.869-2.807,0.253-4.039c-0.464-0.93-0.773-2.799-1.516-3.789
	c-0.63-0.84-0.761-1.773-1.263-2.777c-0.623-1.246-1.396-3.059-1.768-4.547c-0.39-1.559,0.566-2.785,0.252-4.039
	c-0.296-1.186-1.263-2.012-1.263-3.031c0-1.434,1.153-4.575-0.252-4.293c-1.374,0.275-3.24,0.801-4.293-0.252
	c-0.832-0.832-1.814-2.25-3.283-1.516c-1.395,0.697-3.368,0.505-5.304,0.505c-1.14,0-2.265,0.221-2.525,1.263
	c-0.495,1.983-1.238,0.322-2.525,0c-0.842-0.21-1.847-0.584-2.525-1.263c-0.733-0.733-0.907-1.861-1.263-3.283
	c-0.324-1.296-1.075-1.393-1.515-2.272c-0.76-1.519-0.144-1.951,0.252-3.535c0.193-0.772,0.077-2.679,0.505-3.536
	c0.553-1.104,0.606-2.625,0.253-4.04c-0.212-0.85-0.539-2.392-0.253-3.536c0.229-0.916,0.506-2.181,0.506-3.535
	c0-1.236,0.252-2.725,0.252-3.788c0-1.024,0.116-2.08,0.285-3.099C513.259,162.939,483.392,161.56,454.997,159.276L454.997,159.276z
	 M499.144,221.831c-0.635-0.398-1.92-0.256-2.875,0.125c-0.68,0.271-0.198,1.145-1.125,1.375c-0.43,0.107-0.778,0.74-0.875,1.125
	c-0.204,0.818-0.474,1.496-0.625,2.25c-0.142,0.711-0.25,1.371-0.25,2.25c0,0.795,0.127,1.26,0.25,1.875
	c0.169,0.842-1.606,0.617-2.375,1c-0.676,0.338-0.671,0.818-0.5,1.5c0.168,0.672,0.488,0.648,0.125,1.375
	c-0.233,0.469-1.958,1.043-2.375,1.25c-0.522,0.262-0.389,1.432-0.5,1.875c-0.085,0.34-1.25-0.068-1.25-0.625
	c0-1.68-0.701-0.424-1.25,0.125c-0.72,0.721-1.168,0.375-2.5,0.375c-1.017,0-1.285-0.428-1.75,0.5c-0.254,0.508-0.5,1.016-0.5,1.625
	c0,0.664-1.229,1.053-1.875,1.375c-0.841,0.422-1.227,1.193-1.5,1.875c-0.259,0.648-0.104,1.461-0.375,2
	c-0.597,1.193-0.381,1.879,0.875,1.25c0.167-0.082,0.334-0.166,0.5-0.25c0.702-0.35,0.962-0.674,1.25-1.25
	c0.24-0.48,2.396-0.375,3-0.375c0.64,0,1.052-0.301,1.375-0.625c0.447-0.447,0.852-1.352,1.25-1.75c0.242-0.242,1.535-0.375,2-0.375
	c0.547,0,1.054,0.268,1.625,0.125c0.955-0.238,1.205-0.523,1.75-1.25c0.125-0.166,0.25-0.332,0.375-0.5
	c0.397-0.529,0.5-1.281,0.5-1.875c0-0.68,0.188-1.063,0.625-1.5c0.125-0.125,0.25-0.25,0.375-0.375
	c0.373-0.373,1.173-0.523,1.625-0.75c0.608-0.305,1.478,0.074,1.875-0.125c0.647-0.324,0.977-0.816,1.25-1.5
	c0.24-0.6,0.337-0.836,0.75-1.25c0.538-0.537,0.678-0.459,0.875-1.25c0.176-0.703,0.304-0.838,0.875-1.125
	c0.527-0.264,0.752-0.633,0.875-1.125c0.195-0.779,0.045-0.676-0.75-0.875c-0.708-0.176-1.146-0.26-1.625-0.5
	c-0.57-0.285-1-0.723-1-1.5c0-0.447,0.358-1.059,0.5-1.625c0.19-0.762,0.348-0.854,0.875-1.25
	C499.338,222.937,499.487,222.688,499.144,221.831z M512.269,231.831c0.303-0.227-1.103,0.699-2.25,0.125
	c-0.438-0.219-0.958-0.916-1.125-1.25c-0.242-0.484-0.699-0.922-0.875-1.625c-0.27-1.08,0.113-1.158,1.25-0.875
	c0.666,0.166,0.586,0.5,1.5,0.5c0.834,0,1.422-0.227,2.125,0.125c0.388,0.193,0.5,0.959,0.5,1.5S512.999,231.372,512.269,231.831z
	 M471.894,333.581c-0.18,0.359-1.375-0.217-1.375,1c0,0.824-1.314,1-2,1c-0.753,0-1.119-0.061-1.875-0.25
	c-0.93-0.232-1.151-0.152-1.75-0.75c-0.369-0.369-0.676-0.801-1-1.125c-0.63-0.629-1.08-1.098-1.75-1.5
	c-0.652-0.391-0.693-0.568-1.25-1.125c-0.417-0.416-0.47-1.096-0.875-1.5c-0.403-0.404-1.624-1-2.125-1.25
	c-1.027-0.514-1.389-1.197-2.125-1.75c-0.502-0.375-0.799-0.848-1-1.25c-0.367-0.734-0.083-1.207,0.5-1.5
	c0.807-0.402,1.813-0.125,2.875-0.125c0.841,0,2.446-0.354,3.125-0.625c0.605-0.242,0.695-0.549,1.5-0.75
	c0.58-0.145,1.297-0.113,1.75,0c0.88,0.221,0.959,0.684,1.75,1c0.762,0.305,0.979,0.98,1.375,1.375
	c0.568,0.568,0.774,0.998,1.125,1.875c0.25,0.625,0.25,1.189,0.25,2c0,0.781,0.434,1.453,0.75,1.875
	c0.396,0.527,0.725,0.631,1.25,0.5c0.572-0.143,0.925-0.924,1.25-1.25c0.687-0.686,3.756-0.467,4.625-0.25
	c1.073,0.268,0.901,0.947,0.625,1.5c-0.394,0.787-0.584,1.299-0.75,2.125c-0.117,0.586,0.402,1.152,0.625,1.375
	c0.546,0.547-1.006,1.506-1.125,1.625c-0.4,0.4-1.528,0.578-1.875,0.75c-0.177,0.09-0.886-0.885-1-1
	c-0.313-0.313-0.313-0.938-0.625-1.25C472.466,334.028,472.395,333.981,471.894,333.581z M470.769,344.706
	c0-0.447-0.125-1.012-0.125-1.375c0-0.326-0.537-1.336-0.25-1.625c0.194-0.193,1.227-0.969,1.125-1.375
	c-0.17-0.68-0.396-0.822-1-1.125c-0.529-0.264-1.007-0.629-1.5-1c-0.606-0.455-0.891-0.58-1.625-0.875
	c-0.603-0.24-1.003-0.502-1.5-1c-0.5-0.5-0.564-1-1.375-1c-0.71,0-1.424-0.049-1.875-0.5c-0.414-0.414-0.615-0.615-1.125-1.125
	c-0.272-0.271-0.502-1-1-1c-0.615,0-1.341-0.088-1.875,0.125c-0.588,0.236-0.901,0.637-1.5,0.875
	c-0.562,0.225-1.094,0.625-1.75,0.625c-0.703,0-1.127-0.002-1.625-0.5c-0.389-0.389-0.836-0.99-1.375-1.125
	c-0.362-0.09-1.821-0.838-2-0.125c-0.071,0.285-0.34,1.785,0,2.125c0.511,0.51,0.563,1.375,0.75,2.125
	c0.197,0.787,0.375,1.393,0.375,2.375c0,0.59-0.093,1.281,0.375,1.75c0.441,0.441,0.978,1.25,1.875,1.25
	c0.684,0,1.758,0.059,2.375-0.25c0.931-0.465,0.67-0.588,1.125-1.5c0.438-0.873,0.25-1.17,0.25-2.125
	c0-0.744,0.297-1.375,1.25-1.375c0.764,0,1.707,0.078,1.875,0.75c0.159,0.637,0.375,1.723,0.375,2.25c0,0.715-0.375,1.436-0.375,2
	c0,0.918-0.375,1.689-0.375,2.625c0,0.613,0.125,2,1.125,1.75c0.289-0.072,1.501-0.254,1.625-0.75c0.17-0.68-0.12-0.854-0.25-1.5
	c-0.112-0.563-0.264-1.348,0-1.875c0.316-0.633,0.783-1.342,1.375-0.75c0,0.689,0.586,2.266,0.75,3.25c0.124,0.74,0,1.621,0,2.375
	c0,0.848,0.375,1.494,0.375,2.25c0,0.803,0.343,1.158-0.25,1.75c-0.673,0.674-1.015,1.975-1.375,2.875
	c-0.262,0.654-0.092,1.617-0.25,2.25c-0.173,0.693-0.032,1.869,0.125,2.5c0.212,0.848,0.5,1.313,0.5,2.25
	c0,0.73-0.069,1.779-0.25,2.5c-0.225,0.9-0.125,1.621-0.125,2.5c0,0.861,0.322,1.537,0.5,2.25c0.159,0.639,0.467,1.244,0.625,1.875
	c0.154,0.619,0.012,1.023,0.375,1.75c0.083,0.166,1.405,0.695,1.625,0.75c0.494,0.123,0.84,0.545,1.25,0.75
	c0.538,0.27,0.996,0.438,1.75,0.625c0.384,0.096,0.742-0.279,1.125-0.375c0.527-0.131,0.39,1.133,0.875,1.375
	c0.422,0.211,1.305-1.109,1.375-1.25c0.26-0.518,0.381-0.756,0.75-1.125c0.562-0.561,1.135-0.115,1.375,0.125
	c0.143,0.143,0.327,1.557,0.375,1.75c0.115,0.461,0.823,0.537,1.25,0.75c0.406,0.203,0.767,0.518,1,0.75
	c0.322,0.162,0.625,2.723,0.625,3c0,0.393-0.494,1.104-0.625,1.625c-0.205,0.822,0.129,1.129,0.5,1.5
	c0.5,0.5,0.722,0.76,0.875,1.375c0.161,0.643-0.433,1.492-0.625,1.875c-0.306,0.613-0.291,1.213-0.125,1.875
	c0.177,0.707,0.573,1.168,0.75,1.875c0.118,0.473,0.905,1.242,1.25,1.5c0.296,0.223,0.615,1.23,0.75,1.5
	c0.271,0.543,0.457,0.951,0.625,1.625c0.2,0.799,0.584,1.543,1,2.375c0.317,0.635,0.723,1.391,0.875,2
	c0.146,0.586,0.696,1.143,1,1.75c0.355,0.711,0.5,1.498,0.5,2.375c0,0.898-0.211,1.471-0.375,2.125
	c-0.18,0.719-0.125,1.488-0.125,2.25c0,0.766-0.152,1.047,0.375,1.75c0.548,0.73,0.983,1.18,1.625,1.5
	c0.449,0.225,1.59-0.25,2.25-0.25c0.992,0,0.949-0.199,1.625-0.875c0.369-0.367,1.318-0.393,1.75-0.5
	c0.462-0.115,1.745-1.494,2.125-1.875c0.39-0.389,0.25-1.139,0.25-1.75c0-0.604-0.347-1.262-0.5-1.875
	c-0.188-0.756-0.63-1.504-1-1.875c-0.328-0.328-1.151-1.678-1.375-2.125c-0.332-0.664-0.571-1.232-0.75-2.125
	c-0.169-0.848-0.728-1.818-1-2.5c-0.263-0.658-0.7-1.059-1.125-1.625c-0.432-0.574-1.678-1.4-2.125-1.625
	c-0.544-0.271-1.195,0.223-1.75,0.5c-0.738,0.369-1.729,0.072-2.125-0.125c-0.241-0.121-0.443-1.719-0.5-2
	c-0.106-0.533,0.934-1.24,1.125-1.625c0.341-0.68,0.53-0.994,0.75-1.875c0.042-0.166,0.084-0.332,0.125-0.5
	c0.174-0.695,0.214-1.354,0.375-2c0.157-0.627,0.599-0.768,0.75-1.375c0.168-0.672-0.483-0.875-1.25-0.875c-0.823,0-1-1.098-1-1.75
	c0-0.916,0.125-1.799,0.125-2.75c0-0.785,0.125-1.5,0.125-2.375c0-1-0.253-1.381-0.625-2.125c-0.497-0.994-1.407-1.537-2.25-1.875
	c-0.123-0.049-0.25,2.393-0.25,2.625c0,0.645-0.188,1.252-0.375,1.625c-0.235,0.471-1.265-1.6-1.375-1.875
	c-0.301-0.752-0.39-1.404-0.75-2.125c-0.328-0.656-0.683-1.135-1.125-0.25c-0.319,0.639-1.363-0.693-1.5-0.875
	c-0.277-0.369-1.593-0.672-2-0.875c-0.925-0.463-0.474-0.904-1.875-0.625c-0.434,0.088-1.294-1.043-1.625-1.375
	c-0.423-0.422-0.941-0.799-1.375-1.125c-0.426-0.318-0.446-1.336-0.375-1.625c0.17-0.678,0.449-1.045,0.625-1.75
	c0.188-0.748,0.141-1.938,0-2.5c-0.154-0.619-0.25-1.105-0.25-1.75c0-0.754,0.125-1.455,0.125-2.25c0-0.645,0.359-0.984,0.75-1.375
	c0.266-0.266,0.481-0.586,0.625-0.875c0.424-0.705,0.424-0.439,0.75-0.875c0.359-0.479,0.5-0.771,0.5-1.625
	c0-0.699,0.25-1.234,0.25-1.75c0-0.76-0.125-1.379-0.125-2.125C471.394,346.462,471.002,344.474,470.769,344.706z M469.082,381.206
	c-0.113,0.152-0.459-1.219-1.5-2c-0.271-0.203-0.196-0.945-0.438-1.188c-0.286-0.287,0.125-0.594-0.313-0.813
	c-0.424-0.211-0.594-0.305-0.938-0.563c-0.349-0.262-0.53-0.141-0.688-0.063c-0.16,0.08-0.025,0.795-0.438,1
	c-0.659,0.33,0.057,0.994,0.313,1.25c0.425,0.424,0.173,0.998,0.063,1.438c-0.146,0.584,0.313,1.006,0.313,1.563
	c0,0.41-0.078,0.873,0,1.188c0.146,0.586,0.286,0.975,0.688,1.375c0.458,0.459,0.614,0.682,1.25,1
	c0.416,0.209,0.987,0.32,1.375,0.125c0.264-0.131,0.702-0.193,1-0.313c0.535-0.213,0.875-0.242,0.875-0.875
	c0-0.557,0.057-1.277-0.25-1.688c-0.182-0.242-0.403-0.277-0.563-0.438c-0.238-0.238-0.354-0.416-0.563-0.625
	C469.127,381.44,469.217,381.546,469.082,381.206z M495.644,303.706c-0.607-0.607-2.847-0.152-3.5,0.5
	c-0.732,0.732-1.93,0.965-3,1.5c-0.619,0.311,2.466,1,3,1c1.297,0,2.166-0.291,3.25,0.25c1.277,0.639,0.466,2.035,0,2.5
	c-0.621,0.621,0.5,2.756,0.5,3.5c0,1.303-0.25,1.926-0.25,3.5c0,1.209,1.755,1.754,2.25,2.25c0.951,0.951,1.414,1.086,0.25,2.25
	c-1.105,1.105-2.694,0.076-4-0.25c-1.243-0.311-1.249-1.25-3-1.25c-1.721,0-2.435,0.131-3-1c-0.345-0.689-3.558,0.404-3.75,0.5
	c-1.189,0.596-1.396,1.646-2,2.25c-0.563,0.564,0.25,3.008,0.25,3.75c0,0.525-1.633,1.633-2,2c-0.822,0.824-0.313,2.254-0.5,3
	c-0.324,1.299-0.5,2.629-0.5,3.75c0,0.939,1.445,1.25,2.5,1.25c0.409,0,0.73,1.75,2.25,1.75c1.678,0,2.655,1,4.25,1
	c1.894,0,1.104,1.162-0.25,1.5c-1.521,0.381-2.57-0.107-3.25,1.25c-0.681,1.361-0.365,1.789,0,3.25
	c0.237,0.949,1.859,3.109,2.25,3.5c0.401,0.4-0.381,2.727-0.25,3.25c0.174,0.693,1.365,1.865,1.75,2.25
	c0.922,0.922,1.679,0.607,2.25,1.75c0.372,0.744,1.504,1.504,2,2c0.816,0.816,1.215,1.109,1.5,2.25c0.371,1.482,0.82,2.721,0.5,4
	c-0.33,1.32-0.284,2.182,0.25,3.25c0.215,0.43,2.544,0.887,3,1c1.811,0.453,1.563,0.5,2-1.25c0.193-0.773,1.244-1.736,1.75-2.75
	c0.771-1.539,1.523,0.342,1.75,1.25c0.393,1.568,0.376,1.377,1.5,2.5c1.023,1.023,1.5,1.166,1.5,2.75c0,1.229,0.034,2.637,0.25,3.5
	c0.281,1.125,0.041,2.914,0.25,3.75c0.297,1.188,1.984,0.941,2.75,0.75c1.789-0.447,1.5-1.32,1.5-3c0-1.008,1.312-2.516,2.25-2.75
	c1.606-0.4,1.25,1.768,1.25,3c0,1.133-0.759,2.768-1.25,3.75c-0.435,0.871-0.25,3.09-0.25,4c0,1.504-0.317,2.25,1.5,2.25
	c0.271,0-1.826,2.555-2.5,5.25c-0.276,1.107-0.555,2.029-0.25,3.25c0.398,1.594-0.5,3.338-0.5,5c0,1.209-0.265,2.441,0,3.5
	c0.32,1.281,0.537,2.824,1,3.75c1.042,2.084,2.623,0.42,3.5-0.75c0.476-0.633,2.845-1.258,3.5-1.75
	c0.921-0.689,1.97-1.998,1.75-2.875c-0.177-0.707,0.025-2.426,0.25-2.875c0.681-1.359,0.948-2.146,1.5-3.25
	c0.547-1.092,0.98-2.672,1.25-3.75c0.317-1.268,0.199-2.545,0.5-3.75c0.264-1.051-0.593-3.482-1-4.5
	c-0.789-1.973-2.084-3.146-3.5-3.5c-0.919-0.229-1.369-1.738-1.75-2.5c-0.646-1.291-1.302-2.354-1.75-3.25
	c-0.6-1.199-0.75-2.027-0.75-3.5c0-0.744-0.988-2.477-1.25-3c-0.453-0.906-0.624-2.248-1-3c-0.593-1.186-1.192-2.02-1.5-3.25
	c-0.326-1.305-0.966-2.328-1.25-3.75c-0.186-0.93-0.25-2.229-0.25-3.5c0-0.656-1.775-2.025-2.25-2.5
	c-0.695-0.695-0.48-2.424-0.75-3.5c-0.323-1.293-0.5-2.643-0.5-4c0-1.396-0.25-2.637-0.25-4c0-0.775-2.165-2.414-2.75-3
	c-0.908-0.908-1.25-2.078-1.25-3.75c0-1.27-0.5-2.572-0.5-4c0-1.25,0-2.5,0-3.75c0-1.186-0.277-2.887-0.5-4
	c-0.236-1.184,0.029-2.615,0.25-3.5c0.096-0.381,1.617-1.617,2-2c1.104-1.104-0.752-1.813-1.5-2c-1.149-0.287-2.983-0.004-4,0.25
	c-1.554,0.389-2.203,0.408-1.5-1c0.487-0.975,1.681-1.43,2.25-2c0.725-0.725,0.458-3.168,0.25-4c-0.192-0.771-2.549-0.799-3-1.25
	C496.55,304.112,496.996,304.517,495.644,303.706z"/>
</svg>
