<?xml version="1.0" encoding="utf-8"?>
<!-- Generator: Adobe Illustrator 15.0.2, SVG Export Plug-In . SVG Version: 6.00 Build 0)  -->
<!DOCTYPE svg PUBLIC "-//W3C//DTD SVG 1.1//EN" "http://www.w3.org/Graphics/SVG/1.1/DTD/svg11.dtd">
<svg version="1.1" id="Layer_1" xmlns="http://www.w3.org/2000/svg" xmlns:xlink="http://www.w3.org/1999/xlink" x="0px" y="0px"
	 width="799px" height="600px" viewBox="0 0 799 600" enable-background="new 0 0 799 600" xml:space="preserve">
<path id="Kansas_1_" fill="#B30000" stroke="#FAFAFA" stroke-width="5" stroke-miterlimit="10" d="M258.725,400.238
	c-0.58,0.02-1.215-0.04-1.979-0.423c-1.355-0.68-1.178-1.18-2.027-2.027c-0.811-0.813-1.903-1.145-2.788-2.027
	c-0.626-0.625-1.689-1.177-2.027-2.534c-0.385-1.537-0.605-2.164-1.014-3.803c-0.273-1.093-1.098-1.982-1.521-3.041
	c-0.482-1.203-2.535-2.027-2.535-3.548c0-0.731,0.014-3.108,0.761-3.294c0.878-0.221,4.664-1.675,4.815-2.282
	c0.059-0.235,1.11-3.802,0.253-3.802c-1.335,0-2.458,0.779-3.548,0.508c-1.417-0.354-1.951-1.104-3.294-1.773
	c-0.928-0.465-2.557-1.146-4.056-1.521c-1.2-0.299-2.869-0.071-3.294-1.772c-0.103-0.406,0.031-1.313,0.017-2.149
	c-59.274-1.127-119.009-3.14-179.767-7.198c0,0-5.463,73.389-7.657,108.16c0,0,2.194-34.771-0.046,0
	c66.072,5.057,135.921,7.875,210.953,7.933L258.725,400.238L258.725,400.238z"/>
<path id="Nebraska_1_" fill="#B30000" stroke="#FAFAFA" stroke-width="5" stroke-miterlimit="10" d="M236.486,366.631
	c-0.018-0.423-0.077-0.841-0.269-1.031c-0.808-0.808-0.902-1.584-1.267-3.041c-0.349-1.394,0.075-2.371-1.267-3.041
	c-0.791-0.396-1.801-1.025-2.788-1.521c-1.47-0.733-1.168-1.378-1.521-2.787c-0.201-0.803-1.267-2.135-1.267-2.789
	c0-1.876,0.033-2.5-1.014-3.548c-1.028-1.025-0.76-0.917-0.76-2.535c0-1.895-0.539-1.839-1.267-3.294
	c-0.48-0.962-1.383-2.071-1.014-3.549c0.32-1.279,1.384-3.082,1.014-4.563c-0.084,0.084-0.224,0.369-0.253,0.254
	c-0.355-1.424-0.388-2.313-0.761-3.803c-0.255-1.02-0.515-2.044-1.013-3.04c-0.343-0.687-2.089-1.26-2.281-2.028
	c-0.3-1.192,0-1.907,0-3.041c0-1.803,1.774-1.07,1.774-2.533c0-1.203,0.173-2.693-0.254-3.549c-0.451-0.9-0.785-1.981-1.52-2.534
	c-0.892-0.668-1.637-0.97-2.027-2.534c-0.193-0.77-1.522-2.413-1.522-3.295c0-1.176,0.874-4.111,0.762-4.563
	c-0.328-1.31-0.191-2.412-0.762-3.551c-0.463-0.928-0.536-2.057-1.267-2.787c-0.652-0.652-1-1.253-1.774-2.027
	c-0.663-0.664-1.309-1.566-1.013-3.041c0.263-1.317,0.685-2.077,0.253-3.803c-0.345-1.378-1.413-1.849-1.774-3.294
	c-0.322-1.288,0.07-2.764-0.253-4.055c-0.343-1.372-0.525-2.046-1.521-3.041c-0.798-0.798-1.424-0.674-2.788-1.015
	c-1.127-0.282-2.219-0.257-2.535-1.521c-0.104-0.409-0.453-2.649-1.015-2.788c-0.816-0.205-1.781-0.79-2.027-1.774
	c-0.407-1.632-1.521-1.395-3.041-1.773c-1.389-0.348-1.883-0.915-3.294-1.268c-1.6-0.4-2.201-1.247-3.296-1.521
	c-1.517-0.379-1.628-0.94-2.788-1.521c-1.005-0.504-1.431-1.118-3.041-1.522c-1.242-0.309-2.568-0.308-3.801,0
	c-0.959,0.241-2.036,0.811-3.55,0.509c-1.239-0.248-2.576-0.369-4.054,0c-1.46,0.364-0.87,1.575-1.774,2.028
	c-2.403,1.2-2.28,2.229-5.322,1.013c-2.774-1.11-4.115-2.086-5.577-3.548c-0.622-0.621-1.228-1.229-2.027-2.029
	c-0.832-0.831-1.633-1.415-2.281-2.28c-0.226-0.299-0.502-0.613-0.667-0.726c-40.958-2.573-122.478-9.594-142.693-11.383
	c-2.491,24.13,0.09-0.043,0.09-0.043c-2.582,24.173-5.152,48.326-7.786,72.771c19.158,2.478,37.132,4.16,52.4,5.061
	c-0.609,11.422-1.434,22.821-2.27,34.2C117.479,363.605,177.224,365.563,236.486,366.631L236.486,366.631z"/>
<path id="North_Dakota_1_" fill="#B30000" stroke="#FAFAFA" stroke-width="5" stroke-miterlimit="10" d="M193.947,44.043
	C141.65,42.326,89.418,38.638,37.404,32.941c0,0,52.014,5.697,0.056,0.015c-3.937,36.68-7.911,73.348-11.985,110.005
	c25.723,2.5,51.566,3.659,77.354,5.347c35.03,1.928,70.055,4.411,105.119,5.448V139.06l-3.943-7.168l-0.717-5.018l1.792-5.735
	l-1.076-7.527c0,0-2.15-2.868-2.15-6.093s-0.717-6.81-0.717-8.602s-1.075-12.903-1.075-12.903l-1.433-6.452
	c0,0,0.358-2.867,0.358-4.659s-0.717-5.376-0.717-5.376s-1.075-3.226-1.075-4.66c0-1.434,0-5.735,0-5.735s1.075-3.584,1.434-5.376
	c0.358-1.792-0.717-5.735-0.717-5.735L193.947,44.043L193.947,44.043z"/>
<path id="South_Dakota_1_" fill="#B30000" stroke="#FAFAFA" stroke-width="5" stroke-miterlimit="10" d="M14.418,247.515
	c3.717-34.809,7.417-69.674,11.182-104.573c0,0,184.381,11.831,182.348,10.814l-0.358,6.452l-6.093,3.943l0.358,3.942l2.868,5.376
	l6.451,3.942l-1.099,64.353c-1.354,0.015-2.684,0.015-4.016,0c0,0,1.332,0,0.016,0c-0.042,0.298-0.136,0.587-0.277,0.869
	c-0.978,1.958,0.717,1.863,0.717,3.583c0,2.183,0.189,3.245,1.076,5.019c0.694,1.387,1.075,1.954,1.075,4.301
	c0,1.655,0.717,3.722,0.717,4.66c0,2.025-0.609,3.835-1.792,5.019c-1.124,1.123-1.204,2.996-2.509,4.3
	c-1.313,1.314-1.795,2.104-2.918,3.219c-0.297-0.365-0.556-0.729-0.668-1.176c-0.407-1.633-1.521-1.394-3.041-1.773
	c-1.389-0.347-1.883-0.915-3.294-1.267c-1.6-0.401-2.201-1.248-3.294-1.521c-1.518-0.379-1.63-0.94-2.789-1.521
	c-1.005-0.504-1.43-1.118-3.041-1.521c-1.242-0.311-2.568-0.31-3.801,0c-0.959,0.24-2.036,0.81-3.548,0.507
	c-1.241-0.249-2.578-0.369-4.056,0c-1.459,0.364-0.87,1.575-1.774,2.027c-2.403,1.202-2.28,2.23-5.322,1.014
	c-2.774-1.108-4.115-2.086-5.577-3.548c-0.622-0.621-1.227-1.228-2.027-2.027c-0.832-0.832-1.633-1.417-2.281-2.282
	c-0.205-0.271-0.451-0.556-0.629-0.68c-43.929-2.804-130.796-10.46-142.602-11.463v0.012H14.418L14.418,247.515z"/>
<path id="Minnesota_1_" fill="#B30000" stroke="#FAFAFA" stroke-width="5" stroke-miterlimit="10" d="M371.955,76.972
	c-0.53,0.889-1.063,2.045-1.157,2.234c-0.44,0.885-1.32,1.906-1.771,3.041c-0.268,0.665-2.27,1.514-2.788,1.774
	c-1.306,0.651-1.916,1.592-3.296,2.281c-1.21,0.605-2.376,1.315-3.296,1.774c-1,0.5-1.985,1.248-3.04,1.774
	c-1.193,0.598-1.52,1.14-2.787,1.775c-1.452,0.725-2.603,2.601-3.805,3.801c-1.146,1.146-2.901,1.732-3.294,3.295
	c-0.203,0.814-2.349,2.957-2.788,4.054c-0.423,1.057-2.421,2.097-3.294,2.536c-1.168,0.583-2.586,1.545-4.056,2.281
	c-1.563,0.781-3.017,2.51-4.309,3.801c-1.037,1.036-2.609,1.67-3.296,3.041c-0.847,1.691-0.824,2.797-1.268,4.563
	c-0.43,1.716-1.991,1.482-3.041,2.534c-0.667,0.667-1.975,1.253-3.042,1.521c-1.069,0.268-2.149,1.259-2.534,2.028
	c-0.145,0.288-0.229,0.536-0.375,0.652c-0.667-0.101-1.421-0.291-1.81-0.291c-0.738,0-1.979-0.155-2.15,0.538
	c-0.168,0.673-0.305,2.222-0.717,3.046c-0.505,1.012-0.056,2.194-0.358,3.406c-0.239,0.961-0.24,2.079,0,3.046
	c0.237,0.942-0.188,2.484,0.181,3.405c0.325,0.813,0.717,2.037,0.717,3.226c0,1.042,0.058,2.096-0.179,3.046
	c-0.274,1.099,0.25,2.975-0.538,3.764c-0.112,0.112-0.17,0.172-0.358,0.358c-0.606,0.609-0.968,0.997-1.792,1.613
	c-0.795,0.597-1.35,1.057-2.33,1.792c-1.024,0.77-1.974,1.076-3.046,1.613c-0.848,0.424-1.795,0.721-2.688,1.613
	c-0.693,0.695-0.962,0.849-1.434,1.792c-0.313,0.627-0.891,1.428-1.434,1.972c-0.578,0.579-1.898,1.545-1.613,2.688
	c0.265,1.059,0.388,2.208,0.896,3.226c0.477,0.954,0.819,0.767,1.792,1.254c1.096,0.548,1.282,0.464,1.613,1.792
	c0.217,0.865,1.075,1.482,1.075,2.509c0,1.33-0.587,1.354-1.075,2.33c-0.324,0.646-0.802,1.63-0.538,2.688
	c0.213,0.855,0.363,1.813,0.538,2.688c0.171,0.858,0.717,2.537,0.717,3.226c0,0.977-0.646,1.474-1.075,2.33
	c-0.306,0.61-0.759,1.442-0.538,2.33c0.252,1.01,0.151,2.453,0.538,3.226c0.544,1.09,0.108,1.541-0.179,2.688
	c-0.15,0.603-0.018,1.827-0.359,2.509c-0.409,0.819-0.768,1.664-0.065,2.84c1.08,0.573,2.034,0.812,3.155,1.092
	c1.031,0.258,2.62,0.594,3.294,1.267c0.764,0.763,1.502,0.994,2.535,2.027c0.973,0.975,2.563,2.731,3.802,3.042
	c1.063,0.266,2.468,0.68,3.802,1.013c0.998,0.251,2.532,0.253,3.294,1.016c0.684,0.68,1.993,1.601,2.283,3.041
	c0.332,1.664,1.258,3.793,2.534,5.068c0.853,0.854,2.61,1.307,4.055,2.028c0.91,0.457,2.494,1.552,3.041,2.283
	c0.857,1.143,2.992,1.723,3.805,2.534c0.753,0.756,1.757,0.981,2.278,2.028c0.737,1.475,1.883,2.964,2.28,4.561
	c0.238,0.956,1.014,2.449,1.014,3.548c0,1.105,0.225,3.489,0.763,4.563c0.518,1.037,0.908,2.557,1.232,3.945
	c-44.51,0.6-89.664,0.821-135.517,0.725l1.018-64.361l-6.451-3.942l-2.868-5.376l-0.358-3.942l6.093-3.943l0.358-6.452v-14.696
	l-3.943-7.168l-0.717-5.018l1.792-5.735l-1.076-7.527c0,0-2.15-2.868-2.15-6.093s-0.717-6.81-0.717-8.602
	s-1.075-12.903-1.075-12.903l-1.433-6.452c0,0,0.358-2.867,0.358-4.659s-0.717-5.376-0.717-5.376s-1.075-3.226-1.075-4.66
	s0-5.735,0-5.735s1.075-3.584,1.434-5.376c0.358-1.792-0.717-5.735-0.717-5.735l-4-3.977c16.36,0.541,33.031,0.899,49.97,1.057
	l0.076-15.453l4.933,0.643l9.123,22.811l13.179,0.253l8.871,6.589l6.59-3.041c0,0,6.336-2.281,8.616-1.521
	c2.281,0.76,8.364,1.268,9.378,2.535c1.014,1.267,9.377,8.11,9.377,8.11l6.336,1.521c0,0,2.281,2.027,3.548,2.788
	c1.268,0.76,7.857,2.788,7.857,4.055s-0.508,3.296,1.521,2.282c2.026-1.014,1.773-2.789,4.308-3.296
	c2.535-0.507,4.816-0.76,7.099-1.014c2.28-0.254,1.772-3.548,5.321-1.013c3.55,2.534,3.804,3.294,5.829,2.787
	c2.027-0.506,7.351-0.76,8.363-0.76s4.056,1.014,4.563,2.282C369.052,76.367,370.642,76.764,371.955,76.972L371.955,76.972z"/>
<path id="Iowa_1_" fill="#B30000" stroke="#FAFAFA" stroke-width="5" stroke-miterlimit="10" d="M345.737,241.171
	c0.079,0.328,0.147,0.71,0.223,1c0.326,1.304,1.013,2.436,1.013,3.549c0,1.668-0.76,2.794-0.76,4.563
	c0,1.029,1.438,3.209,1.015,4.054c-1.188,2.377,1.27,1.952,1.27,4.056c0,0.422,0,0.846,0,1.267c0,0.603-0.379,3.424,0,3.803
	c0.822,0.821,1.877,1.726,2.534,3.042c0.287,0.573,1.254,2.276,2.279,2.533c1.216,0.304,3.303,0.383,4.814,0.761
	c0.762,0.189,2.12,0.69,2.535,1.521c0.653,1.307,2.23,2.593,2.535,3.802c0.201,0.807,1.148,2.13,2.025,2.788
	c0.993,0.743,0.957,1.718,1.773,2.534c0.717,0.717,2.626,2.118,3.548,3.042c0.651,0.65,1.521,1.436,1.521,3.041
	c0,0.818,0.102,2.635,0.761,3.295c0.494,0.493,2.26,2.194,2.535,3.295c0.388,1.554,0.141,2.394-0.762,3.294
	c-0.665,0.665-3.803,1.836-3.803,3.043c0,1.069,0,3.104,0,4.562c0,1.524-1.137,2.017-1.521,3.549
	c-0.568,2.271-2.051,3.05-4.563,4.056c-0.156,0.313-0.526,1.323-1.014,1.521c-1.105,0.442-2.464,0.869-4.059,1.27
	c-1.224,0.306-2.718,0.76-4.054,0.76c-1.3,0-3.454-0.374-3.802,1.016c-0.252,1.004-0.507,2.396-0.507,3.801
	c0,1.535,0.191,2.293,0.507,3.55c0.309,1.229,1.243,1.474,1.771,2.532c0.405,0.813,1.022,2.24,0.763,3.551
	c-0.232,1.158,0.047,2.691-0.508,3.802c-0.533,1.065-3.068,1.466-2.533,2.534c0.773,1.553-0.254,2.021-0.254,3.548
	c0,1.287-0.457,2.485-1.269,3.295c-0.961,0.961-2.564,1.402-4.056,1.772c-2.155,0.539,0.216,1.813-1.017,3.041
	c-0.339,0.342-2.025,1.781-2.025,2.789c0,1.147-0.521,1.576-0.883,2.305l-6.593-6.791c-43.992,0.561-90.229,0.027-109.078-0.209
	c0.088-1.264-0.406-1.372-1.047-2.653c-0.48-0.962-1.383-2.071-1.014-3.549c0.321-1.278,1.384-3.082,1.014-4.563
	c-0.084,0.084-0.224,0.369-0.253,0.254c-0.355-1.424-0.388-2.313-0.761-3.803c-0.255-1.02-0.515-2.044-1.013-3.041
	c-0.343-0.687-2.089-1.262-2.281-2.027c-0.298-1.192,0-1.907,0-3.041c0-1.803,1.774-1.07,1.774-2.533
	c0-1.203,0.173-2.695-0.254-3.551c-0.451-0.898-0.785-1.98-1.52-2.532c-0.892-0.668-1.637-0.97-2.027-2.534
	c-0.192-0.77-1.521-2.414-1.521-3.295c0-1.175,0.872-4.113,0.76-4.563c-0.328-1.308-0.191-2.408-0.76-3.547
	c-0.465-0.93-0.536-2.059-1.269-2.789c-0.652-0.652-1-1.253-1.774-2.027c-0.663-0.664-1.307-1.566-1.013-3.041
	c0.263-1.317,0.685-2.077,0.253-3.803c-0.345-1.378-1.413-1.849-1.774-3.294c-0.322-1.288,0.07-2.764-0.253-4.055
	c-0.343-1.372-0.525-2.046-1.521-3.041c-0.798-0.798-1.424-0.674-2.788-1.016c-1.127-0.281-2.219-0.256-2.535-1.52
	c-0.102-0.409-0.453-2.649-1.013-2.788c-0.452-0.113-0.95-0.343-1.297-0.68c1.101-1.102,1.597-1.881,2.854-3.138
	c1.305-1.305,1.385-3.176,2.509-4.301c1.183-1.184,1.792-2.992,1.792-5.018c0-0.938-0.717-3.005-0.717-4.66
	c0-2.346-0.381-2.915-1.075-4.3c-0.887-1.777-1.076-2.838-1.076-5.02c0-1.721-1.695-1.625-0.717-3.584
	c0.15-0.299,0.245-0.605,0.282-0.893C253.291,241.88,299.852,241.73,345.737,241.171L345.737,241.171z"/>
<path id="Missouri_1_" fill="#B30000" stroke="#FAFAFA" stroke-width="5" stroke-miterlimit="10" d="M236.486,366.689
	c-0.017-0.424-0.077-0.898-0.269-1.09c-0.808-0.809-0.902-1.584-1.267-3.041c-0.349-1.395,0.075-2.371-1.267-3.041
	c-0.791-0.396-1.801-1.026-2.789-1.521c-1.469-0.734-1.167-1.378-1.521-2.787c-0.201-0.803-1.267-2.135-1.267-2.789
	c0-1.876,0.033-2.5-1.014-3.548c-1.028-1.026-0.76-0.917-0.76-2.535c0-0.243-0.008-0.455-0.124-0.641
	c18.753,0.237,64.99,0.769,108.981,0.209l6.578,6.741c-0.156,0.185-0.287,0.449-0.371,0.785c-0.229,0.914-0.463,2.599,0.253,3.551
	c1.313,1.752,0.254,2.313,0.254,4.309c0,1.525-1.085,3.008-0.763,4.309c0.051,0.293,0.121,0.989,0.256,1.521
	c0.313,1.257,0.271,2.316,0.761,3.295c0.474,0.948,2.896,2.725,3.294,4.309c0.329,1.316,0.638,2.049,1.014,3.549
	c0.327,1.313,0.529,2.558,1.521,3.55c0.769,0.768,1.559,1.155,2.788,1.772c2.112,1.058,5.483,2.496,6.844,4.31
	c0.665,0.887,1.936,1.959,3.04,2.786c1.259,0.943,2.857,1.916,3.549,3.297c0.371,0.74,1.015,2.25,1.015,3.548
	c0,1.206,0.478,2.831,1.016,3.548c0.89,1.188,1.103,1.862,2.025,2.788c1.05,1.049,0.778,1.005,2.28,0.254
	c0.563-0.281,2.014-1.468,3.294-0.508c1.343,1.005,1.954,2.29,3.297,3.297c0.559,0.416,3.041,2.563,3.041,3.802
	c0,1.214,0.049,2.848-0.253,4.056c-0.251,1.001-0.281,2.552-1.521,3.294c-1.137,0.681-3.55,0.451-3.55,1.774
	c0,1.104,0.798,2.711,0.253,3.801c-0.317,0.639-0.261,3.927,1.016,4.563c0.371,1.487,0.031,4.832,1.52,5.577
	c1.454,0.727,4.704,1.661,6.082,3.04c1.375,1.374,1.714,2.727,3.55,4.562c1.529,1.531,4.237,4.059,7.099,4.059
	c2.5,0,6.588-0.722,6.588,2.532c0,2.831-0.014,4.537,1.016,6.592c1.203,2.406,0.278,3.143,1.016,6.083
	c0.428,1.711,0.099,5.169,1.014,6.082c0.95,0.95,2.436,4.054,4.055,4.054c0.866,0,1.997,0.131,3.48,0.313
	c0.084,0.195,0.079,0.459,0,0.77c-0.228,0.903,0.18,1.64,0.18,2.329c0,0.853,0.3,2.567,0,3.764c-0.188,0.756-0.33,1.851,0,2.509
	c0.406,0.813,0.411,1.021-0.356,1.793c-0.486,0.485-1.524,1.253-2.33,1.253c-1.22,0-1.226,1.257-1.973,1.257
	c-0.767,0-2.008-0.107-2.328,0.536c-0.383,0.765-0.708,0.89-1.436,1.613c-0.301,0.3-1.479,0.896-1.613,1.436
	c-0.183,0.729-0.356,1.245-0.356,2.329c0,1.072,0.537,1.295,0.537,2.149c0,0.811-0.194,1.907,0,2.688
	c0.141,0.555,0.378,1.715,0.18,2.509c-0.197,0.793-0.114,1.549-0.717,2.149c-0.59,0.591-1.208,0.901-0.896,2.15
	c0.117,0.465,0.603,1.351,0.182,2.151c-0.136,0.257-0.322,0.491-0.406,0.771c-0.35,1.169-1.107,2.269-1.271,3.639
	c-6.686,0.121-13.347,0.176-20.009-0.107c-0.061-0.149-0.118-0.298-0.179-0.448c-0.154-0.386,0.331-0.957,0.537-1.164
	c0.463-0.463,0.703-0.421,0.984-0.985c0.253-0.503,1.047-1.282,1.523-1.521c0.331-0.165,1.042-0.758,1.344-0.985
	c0.511-0.382,1.237-1.058,1.612-1.435c0.534-0.533,1.191-1.038,1.521-1.702c0.299-0.594,0.634-0.733,0.809-1.434
	c0.169-0.669,0.356-1.604,0.356-2.24c0-0.615,0.146-1.128,0-1.703c-0.151-0.619-0.257-1.063-0.717-1.521
	c-0.372-0.371-0.642-0.563-0.896-1.074c-0.241-0.485-0.327-0.688-0.448-1.165c-0.063-0.259-0.123-1.058-0.146-1.41
	c-47.664,1.594-101.561,2.364-124.909,2.478l-0.346-16.844l-1.246-75.379c-0.58,0.019-1.215-0.042-1.977-0.425
	c-1.356-0.679-1.179-1.179-2.029-2.027c-0.811-0.811-1.903-1.143-2.788-2.025c-0.626-0.625-1.689-1.178-2.027-2.535
	c-0.384-1.537-0.605-2.164-1.014-3.803c-0.273-1.094-1.098-1.981-1.521-3.041c-0.482-1.201-2.535-2.026-2.535-3.549
	c0-0.73,0.014-3.107,0.761-3.293c0.878-0.221,4.664-1.676,4.815-2.281c0.059-0.235,1.11-3.803,0.253-3.803
	c-1.335,0-2.458,0.778-3.548,0.508c-1.417-0.354-1.951-1.103-3.294-1.773c-0.928-0.465-2.557-1.146-4.056-1.521
	c-1.2-0.299-2.869-0.072-3.294-1.772c-0.103-0.406,0.029-1.367,0.017-2.205h-0.002v-0.015H236.486z"/>
<path id="Wisconsin_1_" fill="#B30000" stroke="#FAFAFA" stroke-width="5" stroke-miterlimit="10" d="M435.352,271.732
	c-33.135,2.583-59.086,3.354-72.063,3.271c0,0,12.979,0.083-0.047,0.059c-0.351-1.151-1.929-2.438-2.582-3.744
	c-0.414-0.83-1.772-1.331-2.534-1.521c-1.514-0.378-3.601-0.457-4.813-0.761c-1.026-0.258-1.993-1.961-2.28-2.533
	c-0.657-1.316-1.713-2.222-2.535-3.043c-0.378-0.378,0-3.199,0-3.802c0-0.421,0-0.845,0-1.267c0-2.104-2.455-1.679-1.269-4.056
	c0.425-0.845-1.015-3.024-1.015-4.056c0-1.767,0.76-2.895,0.76-4.561c0-1.113-0.687-2.245-1.013-3.549
	c-0.379-1.512-0.839-3.706-1.521-5.07c-0.538-1.074-0.763-3.457-0.763-4.562c0-1.099-0.771-2.592-1.014-3.548
	c-0.398-1.598-1.543-3.087-2.28-4.561c-0.521-1.047-1.525-1.273-2.28-2.029c-0.811-0.81-2.943-1.391-3.803-2.535
	c-0.547-0.73-2.131-1.825-3.041-2.28c-1.442-0.722-3.201-1.174-4.055-2.028c-1.276-1.275-2.203-3.404-2.534-5.068
	c-0.29-1.439-1.601-2.36-2.283-3.043c-0.762-0.761-2.296-0.762-3.294-1.014c-1.333-0.333-2.736-0.747-3.802-1.013
	c-1.239-0.31-2.829-2.068-3.802-3.042c-1.033-1.033-1.771-1.264-2.535-2.027c-0.674-0.673-2.263-1.009-3.294-1.267
	c-1.12-0.28-2.075-0.519-3.155-1.092c-0.702-1.176-0.344-2.022,0.065-2.84c0.341-0.682,0.208-1.907,0.359-2.509
	c0.287-1.148,0.726-1.599,0.179-2.688c-0.387-0.772-0.284-2.216-0.538-3.226c-0.221-0.889,0.234-1.721,0.538-2.33
	c0.429-0.855,1.075-1.353,1.075-2.33c0-0.689-0.545-2.368-0.717-3.226c-0.175-0.876-0.324-1.833-0.538-2.688
	c-0.265-1.059,0.213-2.042,0.538-2.688c0.488-0.976,1.075-1,1.075-2.33c0-1.027-0.858-1.644-1.075-2.509
	c-0.332-1.33-0.517-1.245-1.613-1.792c-0.973-0.487-1.315-0.3-1.792-1.254c-0.509-1.018-0.632-2.167-0.896-3.226
	c-0.285-1.143,1.036-2.11,1.613-2.688c0.545-0.543,1.121-1.344,1.434-1.972c0.472-0.943,0.741-1.099,1.434-1.792
	c0.893-0.893,1.841-1.19,2.688-1.613c1.072-0.537,2.021-0.844,3.046-1.613c0.98-0.735,1.535-1.196,2.33-1.792
	c0.824-0.618,1.184-1.005,1.792-1.613c0.188-0.186,0.246-0.247,0.358-0.358c0.789-0.789,0.264-2.665,0.538-3.764
	c0.235-0.951,0.179-2.006,0.179-3.046c0-1.19-0.394-2.416-0.717-3.226c-0.368-0.921,0.056-2.463-0.181-3.405
	c-0.242-0.969-0.239-2.085,0-3.046c0.306-1.213-0.146-2.394,0.358-3.406c0.413-0.824,0.549-2.373,0.717-3.046
	c0.174-0.693,1.412-0.538,2.15-0.538c0.39,0,1.17,0.274,1.822,0.332c-0.065,0.978,0.611,1.332,1.121,1.841
	c0.62,0.621,2.089,1.283,3.04,1.521c1.076,0.269,3.004-0.497,4.059-0.76c1.212-0.302,1.584-0.871,3.041-0.507
	c1.594,0.399,2.366-0.846,3.295-1.774c0.887-0.886,2.253-1.494,3.04-2.28c0.797-0.797,2.566-0.786,3.549-1.521
	c1.163-0.873,2.339-2.316,3.548-3.042c1.147-0.688,1.989-1.13,3.548-1.521c1.771-0.442,1.521,1.85,1.521,3.041
	c0,1.489-0.299,2.605,0,3.803c0.458,1.827-1.563,3.854,0.253,4.308c1.104,0.277,2.931-0.379,4.499-0.379
	c1.646,0,3.406,0.189,4.879,0.189c0.848,0,1.915-0.194,2.725-0.252l-0.95,2.977l4.563,1.014l2.534,5.323l33.962,7.856
	c0.423,0,0.845,0,1.268,0c1.554,0,2.813-0.254,4.311-0.254c2.157,0,2.358,0.908,3.802,1.267c1.267,0.318,1.719-0.252,3.294-0.252
	c1.377,0,2.108,1.667,3.549,2.027c1.622,0.405,0.758,1.185-0.253,2.534c-0.892,1.189-1.58,2.027,0.507,2.027
	c1.698,0,3.63,0.4,5.068,0.761c0.726,0.18,0.881,2.254,1.014,2.787c0.198,0.795,0.996,1.706,1.271,2.788
	c0.304,1.218,1.108,2.222,1.521,3.043c0.798,1.597-0.223,2.248-1.016,3.041c-1.02,1.018-0.055,1.52,1.521,1.52
	c1.748,0,2.035,0.743,1.521,1.774c-0.79,1.576-1.632,1.918-0.508,3.041c0.711,0.71,1.178,1.847,1.521,2.536
	c0.737,1.476,1.044,1.521,2.788,1.521c0.238,0,0.337,0.337,0.553,0.67c-0.253,0.462-0.541,0.793-0.897,1.152
	c-0.637,0.637-1.075,1.584-1.075,2.509c0,0.773-0.508,1.498-0.717,2.33c-0.263,1.053-0.833,1.488-1.255,2.33
	c-0.33,0.662-1.15,1.151-1.612,1.613c-0.681,0.68-1.075,1.947-1.075,2.867c0,1.007,0.182,1.826,0.182,2.868
	c0,1.196-0.496,2.482-0.72,3.584c-0.165,0.829-1.702,2.106,0,1.255c1.486-0.744,2.846-1.384,4.122-2.151
	c0.229-0.139,0.479-0.239,0.717-0.358c0.955-0.477,1.764-1.989,2.15-2.509c0.5-0.665,0.803-1.519,1.434-2.151
	c0.609-0.609,1.054-1.641,1.437-2.15c0.49-0.654,1.086-1.271,1.612-1.972c0.643-0.855,0.647-1.345,0.896-2.33
	c0.432-1.729,1.436-3.003,1.436-4.839c0-0.606,0.703-1.923,0.896-2.688c0.283-1.13,1.367-2.599,1.972-3.406
	c0.554-0.734,1.142-1.047,1.974-1.254c0.626-0.157,1.54,2.363,1.792,2.867c0.485,0.975-0.494,2.694-0.719,3.584
	c-0.188,0.752-1.883,2.631-2.329,3.226c-0.725,0.965-1.358,1.85-1.973,2.867c-0.59,0.983-0.964,1.931-1.433,2.868
	c-0.528,1.056-1.045,2.05-1.792,3.046c-0.544,0.726-0.564,2.2-0.896,2.868c-0.519,1.037-0.272,2.53-0.538,3.584
	c-0.29,1.162-0.168,2.623-0.356,3.763c-0.197,1.188-0.104,2.495-0.537,3.584c-0.438,1.092-0.015,2.347-0.538,3.405
	c-0.652,1.305-0.896,3.22-0.896,4.838c0,0.817-0.222,1.628,0,2.509c0.266,1.063,0.301,1.911,0.536,2.868
	c0.033,0.128,0.119,0.237,0.182,0.358c0.165,0.658-1.255,5.953-1.255,7.706c0,1.688-0.682,3.794-1.075,5.375
	c-0.535,2.14-1.219,3.797-1.793,6.094c-0.394,1.566-0.375,3.298-0.717,4.659c-0.479,1.91,0.059,3.716-0.358,5.377
	c-0.42,1.684,0,3.982,0,5.734c0,1.493,0.771,3.075,1.075,4.301c0.392,1.563,1.354,2.708,2.149,4.302
	c0.884,1.761,0.98,2.842,1.436,4.659c0.424,1.693,0.728,3.631,1.075,5.019C435.295,271.022,435.299,271.2,435.352,271.732z"/>
<path id="Illinois_1_" fill="#B30000" stroke="#FAFAFA" stroke-width="5" stroke-miterlimit="10" d="M444.292,299.309
	c-0.735-0.245-1.401-0.578-1.933-1.107c-1.103-1.101-1.021-2.457-2.15-3.583c-1.124-1.125-2.441-2.245-2.866-3.943
	c-0.396-1.584,0.099-3.192-0.357-5.019c-0.294-1.176,0.27-3.582,0-4.659c-0.453-1.813-0.66-3.361-1.075-5.018
	c-0.312-1.241-0.367-2.695-0.538-4.091c-33.188,2.43-59.104,3.197-72.129,3.173c0.153,0.864,1.104,2.188,1.979,2.846
	c0.993,0.743,0.957,1.718,1.773,2.534c0.717,0.717,2.626,2.118,3.548,3.042c0.651,0.65,1.521,1.436,1.521,3.041
	c0,0.818,0.102,2.635,0.761,3.295c0.494,0.493,2.26,2.194,2.535,3.295c0.388,1.554,0.141,2.394-0.762,3.294
	c-0.665,0.665-3.803,1.837-3.803,3.043c0,1.069,0,3.104,0,4.562c0,1.525-1.137,2.016-1.521,3.549
	c-0.568,2.271-2.051,3.049-4.563,4.056c-0.156,0.313-0.525,1.323-1.014,1.521c-1.105,0.442-2.464,0.87-4.059,1.27
	c-1.224,0.306-2.718,0.761-4.054,0.761c-1.3,0-3.454-0.374-3.802,1.015c-0.252,1.006-0.507,2.396-0.507,3.801
	c0,1.535,0.191,2.293,0.507,3.55c0.309,1.229,1.243,1.474,1.771,2.532c0.405,0.813,1.022,2.24,0.763,3.551
	c-0.232,1.158,0.047,2.691-0.509,3.802c-0.532,1.065-3.067,1.466-2.532,2.534c0.773,1.553-0.254,2.021-0.254,3.548
	c0,1.287-0.457,2.485-1.269,3.295c-0.961,0.961-2.564,1.402-4.056,1.772c-2.155,0.539,0.216,1.813-1.017,3.041
	c-0.339,0.342-2.025,1.781-2.025,2.789c0,1.553-0.953,1.785-1.269,3.041c-0.229,0.912-0.46,2.599,0.253,3.549
	c1.315,1.753,0.256,2.314,0.256,4.31c0,1.524-1.085,3.009-0.763,4.31c0.049,0.295,0.121,0.988,0.254,1.521
	c0.313,1.257,0.271,2.315,0.763,3.295c0.474,0.948,2.896,2.726,3.294,4.31c0.329,1.315,0.638,2.049,1.014,3.549
	c0.327,1.312,0.529,2.557,1.521,3.549c0.769,0.768,1.559,1.156,2.785,1.773c2.115,1.058,5.486,2.496,6.847,4.309
	c0.665,0.887,1.936,1.959,3.04,2.787c1.259,0.945,2.857,1.916,3.548,3.296c0.372,0.741,1.016,2.25,1.016,3.548
	c0,1.206,0.478,2.831,1.016,3.548c0.89,1.188,1.103,1.862,2.025,2.789c1.048,1.048,0.778,1.004,2.28,0.253
	c0.562-0.281,2.014-1.468,3.294-0.508c1.343,1.005,1.954,2.29,3.296,3.297c0.559,0.416,3.042,2.563,3.042,3.802
	c0,1.214,0.048,2.849-0.253,4.056c-0.251,1.001-0.282,2.552-1.521,3.297c-1.134,0.678-3.549,0.45-3.549,1.771
	c0,1.104,0.799,2.711,0.253,3.802c-0.315,0.638-0.26,3.926,1.017,4.563c0.372,1.487,0.032,4.832,1.521,5.577
	c1.454,0.727,4.704,1.661,6.082,3.04c1.375,1.374,1.713,2.727,3.548,4.562c1.531,1.532,4.237,4.059,7.101,4.059
	c2.498,0,6.588-0.722,6.588,2.533c0,2.832-0.014,4.536,1.014,6.592c1.205,2.406,0.279,3.142,1.017,6.082
	c0.429,1.711,0.1,5.169,1.015,6.082c0.95,0.951,2.434,4.056,4.055,4.056c0.795,0,2.021,0.146,3.438,0.377
	c0.086-0.706-0.25-1.217,0.224-2.165c0.634-1.269,1.533-2.069,2.15-2.688c0.669-0.67,0.295-1.372,1.255-1.612
	c0.979-0.245,1.218-0.495,2.33-0.717c1.035-0.208,1.629,0.184,2.328,0.356c0.942,0.236,1.396,0,2.33,0
	c0.974,0,1.005,0.107,1.611,0.717c0.572,0.572,1.532,0.944,2.151,1.256c0.239,0.117,0.477,0.238,0.717,0.357
	c0.723,0.361,1.15,0.575,2.149,1.075c1.063,0.533,2.066,0.312,2.688,0c1.145-0.571,0.744-0.821,1.075-2.151
	c0.277-1.105,0.58-1.525,0.18-2.33c0.131-0.52-0.326-1.104-0.446-1.344c-0.141-0.277-0.729-0.672-0.896-0.896
	c-0.218-0.29-0.595-0.415-0.807-0.626c-0.349-0.35-0.601-0.606-0.718-1.075c-0.114-0.467-0.136-0.933,0.036-1.461
	c0.319-1.596,0.624-1.832,2.027-2.535c1.17-0.584,2.599-0.713,3.801-1.014c1.837-0.459,2.311-0.813,3.043-2.281
	c0.521-1.045,0.761-1.506,0.761-3.041c0-1.451-0.211-2.363-0.509-3.548c-0.295-1.183,0.514-2.291,1.018-3.296
	c0.275-0.558,0.353-1.158,0.506-1.774c0.771-1.544,0.529-5.664,1.014-7.603c0.864-3.459-1.384-3.617,1.521-5.068
	c2.724-1.362-0.583-2.181-1.521-4.056c-0.023-0.052,4.37-3.453,5.576-4.057c0.601-2.398,0.067-1.913,1.014-3.803
	c0.525-1.052,1.644-0.738,2.028-2.281c0.31-1.236,0.226-2.013,1.268-2.533c0.569-0.284,0.226-2.225,0.509-2.785
	c0.698-1.4,0.954-1.25,0.506-3.042c-0.334-1.341-0.869-1.592-0.506-3.043c0.271-1.086,0.253-2.393,0.253-3.803
	c0-0.867-1.024-1.813-1.269-2.786c-0.355-1.429-0.605-1.719-1.268-3.043c-0.64-1.276,0-1.987,0-3.803
	c0-1.203-0.028-3.632,0.76-3.548c0.063-0.043,0.12-0.086,0.181-0.128c0.163-0.118,0.136-0.297,0.136-0.538
	c0-0.163,0.061-0.506,0.087-0.627c0.039-0.149,0.083-0.226,0.216-0.104c-2.363-37.056-5.105-68.045-6.678-84.669"/>
<path id="Kentucky_1_" fill="#B30000" stroke="#FAFAFA" stroke-width="5" stroke-miterlimit="10" d="M440.495,440.366
	c-0.154,0.616-0.229,1.219-0.507,1.772c-0.502,1.005-1.312,2.115-1.016,3.296c0.299,1.187,0.509,2.099,0.509,3.55
	c0,1.533-0.237,1.996-0.763,3.041c-0.733,1.47-1.204,1.82-3.041,2.279c-1.202,0.303-2.631,0.432-3.801,1.016
	c-1.403,0.703-1.708,0.938-2.027,2.535c-0.172,0.527-0.15,0.993-0.035,1.461c0.116,0.469,0.368,0.728,0.717,1.073
	c0.212,0.211,0.589,0.336,0.807,0.626c0.169,0.227,0.757,0.618,0.896,0.896c0.121,0.239,0.578,0.824,0.446,1.344
	c0.4,0.803,0.1,1.225-0.18,2.33c-0.331,1.33,0.066,1.58-1.075,2.151c-0.62,0.311-1.623,0.531-2.688,0
	c-0.999-0.5-1.43-0.714-2.149-1.075c-0.24-0.119-0.478-0.24-0.717-0.359c-0.621-0.31-1.579-0.682-2.151-1.254
	c-0.606-0.607-0.642-0.717-1.611-0.717c-0.935,0-1.388,0.236-2.33,0c-0.699-0.175-1.293-0.566-2.328-0.358
	c-1.112,0.224-1.351,0.474-2.33,0.719c-0.96,0.238-0.586,0.941-1.255,1.61c-0.619,0.619-1.519,1.42-2.15,2.688
	c-0.474,0.946-0.138,1.459-0.107,2.19c0.014,0.205,0,0.426-0.07,0.678c-0.228,0.902,0.18,1.64,0.18,2.327
	c0,0.854,0.298,2.569,0,3.766c-0.188,0.756-0.331,1.85,0,2.509c0.405,0.813,0.411,1.021-0.356,1.793
	c-0.486,0.485-1.525,1.253-2.33,1.253c-1.219,0-1.227,1.255-1.974,1.255c-0.767,0-2.008-0.105-2.327,0.538
	c-0.383,0.763-0.708,0.888-1.436,1.613c-0.301,0.3-1.479,0.896-1.613,1.434c-0.093,0.373-0.185,0.692-0.307,1.018
	c16.416-0.722,31.514-1.534,43.517-2.51c0.291-0.071,0.168-1.094,0.168-1.312c0-0.443-0.188-0.713-0.188-1.078
	c0-0.533-0.57-1.329-0.761-1.71c-0.158-0.313-0.324-0.522-0.443-0.761c-0.146-0.295-0.264-0.654-0.381-0.887
	c-0.157-0.315-0.099-0.649-0.189-1.017c-0.068-0.281,0-0.702,0.063-0.951l7.224-0.82l-0.07,1.941
	c45.139-3.886,88.539-9.117,130.668-14.864c-0.151-0.104,0.186-0.818,0.186-0.978c0-0.332-0.301-0.969,0.088-1.165
	c0.332-0.165,0.717-0.454,0.717-0.896c0-0.446-0.521-1.105-0.356-1.437c0.509-1.015,2.298-1.188,2.599-1.791
	c0.103-0.102,0.939-0.354,0.985-0.448c0.139-0.275,1.153-0.752,1.165-0.806c0.15-0.76,0.363-0.598,1.255-0.448
	c0.743,0.123,1.972,0.325,1.972-0.628c0-0.545,0.124-1.201,0.448-1.521c0.361-0.362,0.117-0.773,0.356-1.254
	c0.199-0.401,0.967-0.372,1.074-0.809c0.046-0.185-0.129-1.088,0.181-1.165c0.68-0.17,0.984-0.045,0.984-0.628
	c0-0.696,0.179-0.887,0.271-1.434c0.104-0.633,0.084-1.396,0.446-1.881c0.368-0.49,0.029-0.955,0.358-1.613
	c0.245-0.49,0.245-0.631,0.717-0.985c0.567-0.425,0.67-0.815,1.345-0.984c0.212-0.055,1.884-0.313,1.884-0.627
	c0-0.587,0.186-0.819,0.446-1.346c0.153-0.307,0.332-0.718,0.896-0.718c0.854,0,0.938-0.222,1.521-0.806
	c0.271-0.271,0.722-0.361,0.986-0.719c0.19-0.255,0.321-0.937,0.626-1.165c0.254-0.188,1.629-0.502,1.703-0.626
	c0.261-0.435,0.583-0.984,0.807-1.435c0.185-0.368,0.516-0.514,0.896-0.896c0.354-0.356,0.599-0.408,0.896-0.809
	c0.228-0.3,1.063-0.301,1.165-0.717c0.259-1.031,0.729-0.288,1.075-0.985c0.122-0.243,0.089-0.896,0.271-1.255
	c0.314-0.633,0.524-0.308,1.164-0.627c0.395-0.194,0.664-0.646,1.021-0.789c-0.217-0.243-0.581-0.128-1.738,0.161
	c-2.317,0.58-2.843,0.742-4.659-1.075c-1.01-1.01-0.895-2.387-1.791-3.583c-0.92-1.225-3.215-1.385-3.584-2.867
	c-0.272-1.09-1.188-3.314-1.436-4.303c-0.531-2.119-2.473-1.646-2.867-3.225c-0.085-0.339-0.6-4.185-1.076-4.303
	c-2.753-0.688-2.509-0.275-2.509-2.866c0-1.933-0.034-3.443,0.358-5.02c0.244-0.976,0.317-2.031,0.055-2.984
	c-0.81,0.023-2.441-0.063-3.101-0.063c-0.818,0-1.649-1.184-1.974-1.612c-0.432-0.573-0.965-1.145-1.611-1.792
	c-0.67-0.672-1.324-1.503-1.792-1.973c-0.893-0.89-1.076-0.36-1.792-1.792c-0.572-1.146-0.456-0.994-1.256-1.792
	c-0.78-0.782-1.613-0.448-2.688-0.179c-0.356,0.087-1.409,1.322-1.792,1.611c-0.456,0.342-0.953,1.303-1.075,1.793
	c-0.204,0.816-0.861,0.969-1.435,1.254c-0.688,0.345-1.964,0.224-2.509,0.356c-0.991,0.249-1.606,0.359-2.688,0.359
	c-0.452,0-1.681-0.931-1.972-1.076c-0.852-0.425-0.905-0.986-1.973-1.254c-0.853-0.214-1.758-0.181-2.688-0.181
	c-1.246,0-1.075,0.707-1.075,1.793c0,1.056-1.679,0.718-2.688,0.718c-0.923,0-1.558-1.318-1.792-1.794
	c-0.42-0.838-1.004-1.862-2.15-2.147c-1.293-0.323-2.888-0.181-4.302-0.181c-0.956,0-1.911,0-2.868,0
	c-1.384,0-2.221-0.608-2.866-1.254c-0.426-0.428-0.44-0.885-0.717-1.436c-1.001-1.002-2.029-1.189-2.688-2.51
	c-0.36-0.723-0.315-1.266-0.537-2.15c-0.295-1.172-1.487-1.729-2.33-2.148c-0.965-0.48-1.945-0.342-2.688-0.896
	c-1.017-0.765-0.896-0.861-2.33-1.436c-1.108-0.443-2.22-0.057-3.047,0.357c-0.17,0.086-0.857,1.573-1.075,1.793
	c-0.521,0.521-1.604,0.803-2.148,1.073c-0.527,0.265-0.603,2.048-0.719,2.511c-0.223,0.891,0.068,2.108,0.358,2.688
	c0.399,0.799,0.842,0.967,1.254,1.793c0.185,0.368-0.511,1.129-0.179,1.793c0.352,0.702,0.826,0.797,1.075,1.791
	c0.159,0.641-0.929,1.129-1.436,1.254c-0.752,0.188-1.309,0.358-2.329,0.358c-1.32,0-1.504-0.646-2.33,0.179
	c-0.55,0.55-0.943,0.815-1.255,1.436c-0.444,0.895,0.16,1.435-1.254,1.435c-0.986,0-1.157,0.428-2.151,0.179
	c-0.981-0.245-2.351-0.814-3.226-1.254c-1.029-0.516-1.654,0.057-2.15,0.718c-0.611,0.816-1.129,1.286-1.434,2.509
	c-0.196,0.785,1.548,2.027,2.15,2.511c0.755,0.604-1.179,2.402-1.254,2.508c-0.635,0.844-1.292,1.688-1.613,2.33
	c-0.228,0.449-1.452,0.819-1.792,1.075c-0.783,0.587-1.122,1.122-1.793,1.793c-0.88,0.881-1.254,0.726-1.254,2.33
	c0,1.059-0.561,1.99-1.076,2.508c-0.723,0.725-1.525,0.631-2.149,1.255c-0.872,0.871-1.226,1.677-1.434,2.509
	c-0.231,0.924-0.358,1.362-0.358,2.511c0,1.089-0.538,1.709-0.538,2.866c0,1.276-0.517,1.392-1.073,2.509
	c-0.513,1.021-0.788,1.075-2.15,1.075c-0.695,0-1.913-0.774-2.51-1.075c-1.368-0.683-1.528-0.633-2.508-1.61
	c-0.531-0.531-0.384-1.702-0.538-2.33c-0.251-1.001-3.776-1.438-4.48-1.613c-1.181-0.296-1.937-0.571-3.047,0.538
	c-1.001,0.999-1.62,2.323-0.717,3.227c0.591,0.592,0.67,1.429,0.896,2.329c0.128,0.509-1.085,1.296-1.254,1.973
	c-0.323,1.291-0.373,1.833-1.61,2.33c-0.922,0.367-1.585-0.44-2.688-0.718c-0.588-0.146-1.145-1.213-1.434-1.793
	c-0.469-0.933-1.817-0.152-2.33,0.357c-0.592,0.593-1.936,0.68-2.868,1.613c-1.146,1.146-1.255,0.919-1.255,2.688
	c0,0.858-1.049,1.051-1.435,1.436c-0.814,0.814-0.38,1.689-1.611,1.075c-0.87-0.438-1.169-1.171-1.792-1.793
	c-1.288-1.288-1.724,0.777-2.15-1.792c-0.549-0.55-2.297-0.727-3.047-0.538c-0.501,0.125-0.984-0.18-1.522-0.18
	c-0.418,0-1.078-0.271-1.434-0.447c-0.726-0.361-1.322,0.718-1.435,1.165c-0.115,0.458-0.18,0.896-0.537,1.255
	c-0.282,0.278-1.156,0.267-1.523,0.357c-0.264,0.065-0.479,0.966-0.628,1.165c-0.523,0.699-2.07-0.239-2.419-0.447
	c-0.398-0.239-0.501-0.521-1.076-0.808c-0.478-0.239-1.682-0.133-2.239,0.088c-0.487,0.196-0.757,0.398-0.983,0.627
	c-0.285,0.285-0.453,0.92-0.538,1.255c-0.139,0.559-0.604,1.411-0.896,1.702c-0.381,0.382-1.111,0.358-1.701,0.358
	c-0.789,0-1.174,0.028-1.613,0.356c-0.132,0.102-0.409,0.147-0.712,0.17"/>
<path id="Indiana_1_" fill="#B30000" stroke="#FAFAFA" stroke-width="5" stroke-miterlimit="10" d="M440.443,440.488
	c0.317-0.021,0.612-0.067,0.751-0.17c0.44-0.33,0.822-0.358,1.611-0.358c0.592,0,1.324,0.022,1.703-0.358
	c0.292-0.292,0.758-1.145,0.896-1.699c0.085-0.335,0.255-0.973,0.538-1.256c0.229-0.229,0.497-0.433,0.983-0.628
	c0.56-0.225,1.764-0.327,2.241-0.09c0.573,0.287,0.676,0.566,1.075,0.809c0.348,0.209,1.895,1.146,2.418,0.446
	c0.147-0.196,0.364-1.1,0.628-1.165c0.367-0.092,1.243-0.076,1.523-0.356c0.357-0.358,0.423-0.796,0.535-1.255
	c0.112-0.447,0.709-1.526,1.437-1.165c0.354,0.18,1.016,0.448,1.434,0.448c0.539,0,1.023,0.306,1.523,0.179
	c0.75-0.188,2.498-0.016,3.046,0.538c0.429,2.568,0.864,0.505,2.15,1.792c0.621,0.623,0.924,1.356,1.793,1.793
	c1.232,0.616,0.797-0.262,1.61-1.076c0.384-0.384,1.437-0.574,1.437-1.436c0-1.77,0.106-1.543,1.254-2.688
	c0.935-0.934,2.273-1.021,2.867-1.613c0.513-0.512,1.863-1.289,2.328-0.356c0.291,0.581,0.85,1.646,1.436,1.793
	c1.104,0.274,1.769,1.085,2.688,0.717c1.24-0.496,1.29-1.039,1.613-2.33c0.169-0.676,1.382-1.463,1.254-1.972
	c-0.226-0.899-0.305-1.738-0.896-2.329c-0.901-0.902-0.283-2.227,0.717-3.228c1.11-1.107,1.865-0.832,3.046-0.537
	c0.705,0.177,4.231,0.611,4.48,1.612c0.156,0.629,0.015,1.8,0.536,2.33c0.98,0.979,1.145,0.93,2.511,1.611
	c0.598,0.301,1.813,1.076,2.509,1.076c1.363,0,1.64-0.052,2.148-1.076c0.563-1.116,1.075-1.231,1.075-2.508
	c0-1.158,0.538-1.778,0.538-2.867c0-1.147,0.127-1.587,0.358-2.511c0.208-0.83,0.563-1.638,1.434-2.51
	c0.624-0.624,1.427-0.527,2.151-1.255c0.518-0.517,1.075-1.447,1.075-2.508c0-1.604,0.373-1.449,1.253-2.33
	c0.672-0.67,1.012-1.204,1.793-1.793c0.342-0.255,1.566-0.624,1.792-1.075c0.319-0.644,0.979-1.484,1.611-2.33
	c0.08-0.104,2.012-1.901,1.257-2.508c-0.603-0.479-2.349-1.725-2.151-2.51c0.306-1.221,0.822-1.691,1.434-2.509
	c0.497-0.661,1.122-1.231,2.151-0.719c0.874,0.438,2.241,1.012,3.225,1.256c0.995,0.25,1.165-0.181,2.151-0.181
	c1.414,0,0.808-0.54,1.254-1.434c0.313-0.618,0.706-0.885,1.255-1.437c0.826-0.823,1.01-0.179,2.33-0.179
	c1.021,0,1.58-0.171,2.33-0.356c0.507-0.125,1.595-0.611,1.435-1.255c-0.247-0.992-0.726-1.088-1.074-1.791
	c-0.33-0.664,0.362-1.424,0.18-1.793c-0.414-0.826-0.854-0.994-1.255-1.793c-0.288-0.578-0.581-1.797-0.358-2.688
	c0.115-0.462,0.188-2.243,0.718-2.511c0.203-0.101,0.481-0.202,0.77-0.393c-3.233-41.078-8.173-76.572-10.854-95.031
	c-21.849,2.229-42.534,2.938-52.648,3.494c-0.98,0.986-2.552,2.17-3.932,2.861c-1.108,0.554-2.521,1.453-3.228,2.866
	c-0.896,1.793-1.427,1.253-3.227,2.151c-1.905,0.954-3.314,0.336-6.095-0.358c-0.929-0.231-1.872-0.4-2.713-0.816
	c1.585,16.496,0.016-0.131,0.016-0.131c1.569,16.627,4.313,47.615,6.678,84.671c-0.133-0.121-0.177-0.045-0.214,0.104
	c-0.031,0.121-0.089,0.467-0.089,0.627c0,0.24,0.028,0.422-0.136,0.539c-0.061,0.043-0.118,0.084-0.181,0.127
	c-0.788-0.084-0.76,2.347-0.76,3.551c0,1.813-0.639,2.521,0,3.801c0.66,1.325,0.91,1.617,1.268,3.043
	c0.242,0.973,1.269,1.92,1.269,2.788c0,1.41,0.018,2.713-0.253,3.801c-0.363,1.452,0.172,1.704,0.506,3.042
	c0.448,1.793,0.192,1.644-0.506,3.042c-0.282,0.563,0.063,2.503-0.509,2.787c-1.042,0.521-0.958,1.295-1.268,2.534
	c-0.387,1.543-1.503,1.229-2.026,2.28c-0.943,1.891-0.415,1.401-1.015,3.803c-1.207,0.603-5.602,4.005-5.577,4.056
	c0.938,1.874,4.244,2.692,1.521,4.057c-2.903,1.45-0.654,1.607-1.521,5.067c-0.482,1.938-0.24,6.06-1.014,7.604"/>
<path id="Michigan_1_" fill="#B30000" stroke="#FAFAFA" stroke-width="5" stroke-miterlimit="10" d="M432.685,176.439
	c-0.168-0.169-0.313-0.67-0.553-0.67c-1.745,0-2.051-0.045-2.788-1.521c-0.344-0.689-0.812-1.824-1.521-2.534
	c-1.124-1.125-0.282-1.464,0.508-3.042c0.515-1.031,0.228-1.774-1.521-1.774c-1.575,0-2.54-0.501-1.521-1.52
	c0.793-0.793,1.813-1.444,1.016-3.041c-0.41-0.821-1.217-1.825-1.521-3.041c-0.272-1.084-1.07-1.995-1.271-2.79
	c-0.133-0.532-0.288-2.605-1.014-2.787c-1.438-0.36-3.37-0.761-5.068-0.761c-2.087,0-1.396-0.838-0.507-2.027
	c1.013-1.35,1.875-2.129,0.253-2.534c-1.439-0.361-2.172-2.027-3.549-2.027c-1.575,0-2.027,0.57-3.294,0.253
	c-1.441-0.361-1.645-1.267-3.802-1.267c-1.497,0-2.757,0.253-4.312,0.253c-0.422,0-0.844,0-1.268,0l-33.961-7.857l-2.534-5.321
	l-4.563-1.014l0.949-2.978c0.587,0.065,0.976,0.1,1.332,0.189c1.354,0.338,3.013-0.745,4.057-1.267
	c1.25-0.625,2.14-1.634,2.787-2.281c1.433-1.433,0.641-2.252,2.786-2.788c1.19-0.298,1.821-0.911,3.041-1.52
	c1.154-0.577,2.402-0.761,3.805-0.761c1.536,0,3.146-0.783,4.308-1.013c1.113-0.223,2.301-1.815,2.788-2.79
	c0.626-1.249,1.729-2.5,2.789-3.294c1.415-1.063,2.259-1.566,3.548-2.534c1.546-1.161,2.398-2.4,3.548-3.548
	c1.328-1.327,2.841-2.435,4.563-3.295c1.52-0.759,3.302-1.53,4.057-2.535c0.788-1.051,2.18-1.928,3.294-3.041
	c0.889-0.89,1.613-1.359,2.28-2.027c0.535-0.535,2.655-1.327,3.548-1.774c1.16-0.58,2.555-0.956,3.803-1.267
	c2.021-0.505,2.534,0.463,2.534,2.281c0,1.501-1.121,2.425-2.28,3.294c-1.054,0.791-1.96,2.146-2.532,3.295
	c-0.422,0.838-1.582,1.805-2.536,2.28c-1.371,0.688-1.417,2.065-3.294,2.536c-1.042,0.261-2.102,1.917-2.534,2.788
	c-0.369,0.741-1.269,1.463-1.269,3.041c0,1.316-0.041,2.631,0.253,3.801c0.358,1.436,1.663,1.07,2.787,0.507
	c1.353-0.675,1.15-1.998,3.295-2.534c1.572-0.392,3.608,0.206,4.815,0.507c1.782,0.445,3.667-0.002,5.576,0.76
	c1.727,0.69,1.84,1.808,3.294,2.536c1.18,0.588,2.26,1.73,2.788,2.788c0.553,1.104,1.608,1.796,2.534,2.027
	c1.488,0.373,1.973,0.706,3.043,1.774c0.708,0.708,1.93,1.092,2.786,1.521c1.03,0.516,2.313,0.761,3.802,0.761
	c1.504,0,3.069-0.248,4.311,0c1.497,0.299,3.426,0.507,5.321,0.507c0.931,0,1.994-1.202,2.28-1.774
	c0.756-1.512,1.388-2.721,3.043-3.548c1.379-0.691,1.552-1.552,2.532-2.535c0.756-0.753,1.119-0.815,2.027-1.267
	c1.568-0.346,3.354-0.358,4.646-0.682c0.311-0.077,1.427-1.068,1.61-1.254c0.367-0.365,2.482-0.179,3.048-0.179
	c1.121,0,2.215-0.179,3.405-0.179c1.095,0,2.071-0.358,3.227-0.358c0.845,0,1.857-0.196,2.51-0.358
	c1.138-0.285,2.057-1.319,2.688-1.792c0.502-0.377,1.948-0.616,2.511-0.896c0.793-0.396,2.053-0.289,3.046-0.538
	c0.286-0.071,1.392,1.571,1.434,1.613c0.773,0.773,0,1.655,0,2.688c0,1.13,0.306,1.556,1.255,1.792
	c1.178,0.294,2.095,0.623,3.229,1.075c0.869,0.349,1.503,0.394,2.509,0.896c0.615,0.308,2.149,0.358,2.866,0.358
	c1.056,0,1.943,0.01,2.866-0.358c0.891-0.355,1.503-0.415,2.33,0c1.491,0.746,0.673,1.994,2.15,1.255
	c0.913-0.457,1.422-0.365,2.15,0c0.762,0.38,1.26,0.543,1.792,1.075c0.552,0.552,0.591,1.927,0.896,2.688
	c0.447,1.119,0.845,1.722,1.075,2.867c0.188,0.94,0.348,1.781,0.896,2.33c0.664,0.664,1.823,0.927,2.688,1.792
	c0.389,0.39,1.572,0.572,2.15,0.717c0.512,0.127,0.954,1.317,1.073,1.792c0.295,1.176-0.437,1.334-1.073,1.972
	c-0.488,0.489-2.92,0.538-3.586,0.538c-1.349,0-1.694,0.151-2.688,0.896c-0.729,0.545-1.214,0.233-2.15,0
	c-1.027-0.258-1.172-0.696-1.972-0.896c-1.365-0.342-1.471-1.021-2.688-0.717c-0.116,0.029-0.239,0-0.358,0
	c-0.896,0-1.255,1.11-1.255,1.971c0,0.949,0,1.774-0.179,2.509c-0.228,0.903-3.112,0.237-3.587,0
	c-0.952-0.477-1.213-1.153-2.328-1.434c-0.699-0.175-1.271-0.717-2.329-0.717c-0.984,0-2.285-0.694-3.047-1.075
	c-1.3-0.648-2.927-0.616-4.304-1.075c-0.841-0.28-1.84-0.179-2.864-0.179c-1.452,0-2.766,0.255-3.405,0.896
	c-0.575,0.576-1.023,0.69-1.255,1.613c-0.151,0.604-0.782,1.746-1.075,2.33c-0.395,0.788-0.916,1.434-1.972,1.434
	c-0.868,0-2.313,0.176-3.227,0.358c-1.771,0.354-3.556,0.49-5.019,1.075c-0.933,0.372-1.47,0.75-1.974,1.254
	c-0.68,0.679-1.358,0.823-1.972,1.434c-0.846,0.847-1.431,1.786-1.971,2.867c-0.356,0.713-0.956,1.516-1.436,2.151
	c-0.474,0.632-0.696,1.395-1.074,2.151c-0.431,0.859-1.347,1.569-2.15,1.971c-0.915,0.458-1.517-0.4-2.509-0.896
	c-0.568-0.284-0.237-2.63-0.182-2.867c0.273-1.094-0.079-2.31-0.536-3.226c-0.461-0.921-1.602,0.311-2.511,0.537
	c-1.096,0.275-2.603,1.53-3.225,2.151c-0.41,0.412-1.354,0.944-1.973,1.255c-0.947,0.474-0.646,1.518-0.896,2.508
	c-0.217,0.868-0.848,1.958-1.075,2.868c-0.223,0.889-0.985,1.524-1.612,2.15c-0.357,0.358-0.718,0.717-1.074,1.076
	c-1.051,1.05-1.732,2.271-2.688,3.226c-0.669,0.669-1.287,1.465-2.148,2.33c-0.734,0.733-1.355,1.481-1.613,2.509
	c-0.207,0.829-0.022,2.064-0.179,2.688c-0.288,1.15-0.489,1.991-0.896,2.868C433.473,175.696,433.135,175.991,432.685,176.439
	L432.685,176.439z M553.524,286.555c-11.554,1.418-24.521,2.661-37.109,3.711c0,0,12.589-1.05-0.039,0.014
	c-0.104-0.432-0.168-0.87-0.229-1.299c-21.849,2.229-42.533,2.938-52.647,3.495c1.302-1.299,2.098-2.745,2.879-4.309
	c0.797-1.595,1.352-3.063,2.15-4.659c0.65-1.307,0.755-3.378,1.073-4.66c0.325-1.302,1.342-2.852,1.793-4.659
	c0.385-1.537,0.358-3.382,0.358-5.377c0-1.773,0.771-3.328,1.434-4.658c0.71-1.42,0.401-3.442,0.719-5.019
	c0.4-2.019-0.179-3.59,0.717-5.376c0.783-1.565,0.356-4.014,0.356-5.735c0-0.897-0.84-3.001-1.073-3.943
	c-0.358-0.716-0.719-1.433-1.075-2.149c-0.679-1.356-1.561-2.759-2.151-3.943c-0.902-1.809-2.26-2.949-3.584-3.943
	c-1.706-1.278-2.421-3.231-2.867-5.018c-0.438-1.758-0.356-3.306-0.356-5.377c0-2.255-0.08-4.7,0.356-6.451
	c0.464-1.85,0-3.601,0.358-5.019c0.521-2.087,1.035-4.853,1.434-6.451c0.498-1.996,0.999-2.848,1.436-5.018
	c0.347-1.728,0.356-3.223,0-4.659c-0.39-1.55-1.075-2.995-1.075-5.018c0-2.137,0.616-2.666,1.434-4.301
	c0.883-1.763,1.604-2.734,2.511-3.943c1.272-1.698,0.924-2.715,2.149-3.942c1.194-1.195,2.248-1.532,3.228-2.509
	c1.228-1.228,2.47-1.872,3.584-2.15c0.618-0.154,1.684,3.506,1.792,3.943c0.603,2.411,3.03,1.352,4.302,0.717
	c1.932-0.966,3.073-1.847,3.942-3.584c0.859-1.724,0.021-3.845-0.358-5.376c-0.439-1.757-1.188-2.425-0.718-4.301
	c0.432-1.722,3.43-0.997,5.019-1.792c1.559-0.777,1.766-2.036,2.151-3.584c0.469-1.878-0.508-3.879-1.075-5.018
	c-0.643-1.284-1.478-2.68-1.793-3.943c-0.775-3.101,3.148-2.509,5.735-2.509c2.065,0,4.24-0.104,6.093,0.359
	c1.907,0,4.223-1.076,6.451-1.076c2.041,0,3.646,0.748,5.019,1.434c1.472,0.736,2.362,1.54,3.585,2.15
	c1.483,0.742,2.19,1.813,3.583,2.509c1.589,0.794,2.003,1.308,3.943,1.792c1.651,0.415,2.273,1.138,3.585,1.792
	c1.703,0.852,2.571,1.877,3.583,3.226c1.282,1.709,1.604,1.398,2.149,3.584c0.446,1.791-0.493,2.889,0.358,5.018
	c0.745,1.865,2.15,4.285,2.15,6.452c0,1.77,0.356,3.833,0.356,5.735c0,1.805,1.762,3.818,2.151,5.376
	c0.462,1.85,0.356,3.776,0.356,5.735c0,1.175-1.967,2.324-2.866,3.226c-1.817,1.817-2.701,1.841-3.228,3.942
	c-0.314,1.263-1.017,2.989-1.435,4.66c-0.364,1.458-1.837,2.601-2.509,3.943c-0.764,1.521-1.074,2.835-1.074,5.018
	c0,2.449,0.732,2.887,1.791,3.943c0.269,0.27,4.348-1.099,5.019-1.434c1.144-0.57,1.405-2.482,2.15-3.226
	c1.195-1.195,1.922-2.411,2.51-3.584c0.596-1.195,1.605-2.135,2.149-3.226c0.901-1.805,1.378-2.453,2.51-3.584
	c0.754-0.754,3.902-0.716,5.018-0.716c2.272,0,3.366-0.466,5.02,0.358c0.991,0.496,1.539,2.933,1.793,3.942
	c0.433,1.736,1.075,2.285,1.075,4.302c0,1.234,1.06,3.197,1.434,3.942c0.534,1.071,1.945,2.306,2.868,3.226
	c0.98,0.981,1.074,2.757,1.074,4.301c0,0.969,1.804,2.197,2.148,3.584c0.396,1.575,0.698,2.798,1.075,4.302
	c0.28,1.12,1.419,1.808,2.254,2.426c-0.226,0.585-0.41,1.181-0.282,1.695c0.236,0.946,0.515,1.514,0.719,2.33
	c0.171,0.687,0.6,1.366,0.356,2.33c-0.146,0.594-0.717,1.629-0.717,2.15c0,0.894,0.18,1.727,0.18,2.688
	c0,0.988-0.632,1.238-0.356,2.329c0.201,0.809,0.468,1.697,0.717,2.688c0.218,0.877,0.358,1.736,0.358,2.688
	c0,0.368-0.059,0.864-0.314,1.063c-0.346-0.68-0.586-0.889-0.851-1.153c-0.364-0.362-1.266-0.269-1.792-0.269
	c-0.525,0-1.296,0.063-1.703,0.269c-0.362,0.181-0.949,0.261-1.347,0.358c-0.512,0.127-1.033,0.685-1.521,0.807
	c-0.192,0.049-0.469,0.666-0.538,0.807c-0.159,0.317-0.212,0.78-0.358,1.075c-0.19,0.383-0.685,0.782-1.073,1.074
	c-0.354,0.266-0.18,1.537-0.092,1.882c0.092,0.357,0.327,0.92,0.448,1.523c0.128,0.643,0.336,0.985,0.448,1.435
	c0.114,0.457,0.257,0.783,0.347,1.119c-0.358,0.475-0.968,1.832-1.512,2.376c-0.494,0.492-1.032,0.675-1.613,1.254
	c-0.457,0.458-0.896,0.872-0.896,1.792c0,1.102-0.107,1.865-0.358,2.867c-0.197,0.791-0.339,2.013,0,2.688
	c0.256,0.513,0.597,1.562,0.358,2.51c-0.128,0.514-0.165,1.17-0.168,1.835c-0.407,0.27-0.715,0.481-1.087,0.852
	c-0.621,0.622-1.431,1.073-1.973,1.613c-0.51,0.512-0.538,2.327-0.538,3.047c0,0.638-1.044,1.405-1.434,1.793
	c-0.672,0.671-0.734,1.362-0.538,2.15C553.354,286.074,553.428,286.412,553.524,286.555L553.524,286.555z"/>
<path id="Ohio_1_" fill="#B30000" stroke="#FAFAFA" stroke-width="5" stroke-miterlimit="10" d="M627.018,265.663
	c1.767,10.212,4.815,28.1,7.657,46.479c-1.27,0.596-1.943,1.125-2.828,2.006c-0.646,0.648-0.75,2.242-1.014,3.297
	c-0.041,0.16,1.627,1.437,1.774,2.027c0.315,1.271,0.096,1.897-0.256,3.295c-0.273,1.104,0,2.654,0,3.801
	c0,1.429,0.139,2.578,0.509,4.057c0.271,1.081-0.521,2.814-1.016,3.803c-0.492,0.982-0.992,2.443-1.268,3.547
	c-0.316,1.267-0.74,2.205-1.015,3.295c-0.354,1.42,0.047,2.119,0.762,3.549c0.601,1.201,1.207,2.414,1.771,3.549
	c0.688,1.378-0.438,1.961-1.267,2.788c-0.975,0.973-0.985,1.604-2.534,2.534c-0.934,0.561-1.744,1.654-2.028,2.787
	c-0.193,0.779-1.243,1.729-1.521,2.281c-0.465,0.932-2.417,1.754-3.294,2.28c-0.973,0.584-0.975,1.521-3.041,1.521
	c-1.247,0-2.673,0.035-3.548,0.254c-1.32,0.33-1.018,1.816-1.018,3.041c0,1.559-1.582,2.153-2.533,2.535
	c-1.345,0.537-1.797,0.705-2.788,2.027c-0.695,0.93-0.556,2.083-0.252,3.295c0.239,0.96,0.133,2.256,0,2.787
	c-0.367,1.473,0.75,1.275-0.509,2.534c-0.8,0.802-1.922,0.724-2.786,0.507c-1.319-0.329-1.657-0.852-3.041-0.507
	c-1.494,0.374-1.521,0.743-1.521,2.534c0,1.175-0.507,2.326-0.507,3.803c0,1.304-1.521,0.958-1.521,2.533
	c0,1.453,0.18,2.24,0.506,3.549c0.462,1.845,0.989,3.208-1.052,3.208c-0.035,0.284-0.072,0.571-0.107,0.856
	c-0.19,1.501-0.357,2.029-0.357,3.403c0,0.829-1.89,0.786-2.33,0.896c-0.804,0.198-1.254,0.446-2.149,0.896
	c-1.09,0.544-2.771,0.18-4.122,0.18c-0.815,0-1.646-1.184-1.973-1.611c-0.431-0.574-0.963-1.146-1.611-1.792
	c-0.672-0.671-1.323-1.503-1.794-1.972c-0.89-0.892-1.074-0.361-1.791-1.793c-0.571-1.146-0.456-0.994-1.255-1.791
	c-0.781-0.783-1.612-0.449-2.688-0.181c-0.357,0.087-1.409,1.323-1.792,1.612c-0.453,0.341-0.952,1.301-1.075,1.792
	c-0.204,0.813-0.86,0.967-1.436,1.254c-0.688,0.344-1.965,0.222-2.509,0.356c-0.99,0.249-1.605,0.359-2.688,0.359
	c-0.452,0-1.681-0.93-1.973-1.076c-0.851-0.425-0.904-0.986-1.973-1.254c-0.851-0.213-1.756-0.18-2.688-0.18
	c-1.245,0-1.074,0.707-1.074,1.792c0,1.056-1.678,0.718-2.688,0.718c-0.924,0-1.557-1.318-1.792-1.793
	c-0.421-0.84-1.005-1.863-2.149-2.148c-1.291-0.324-2.889-0.181-4.302-0.181c-0.957,0-1.91,0-2.867,0
	c-1.386,0-2.223-0.608-2.867-1.254c-0.426-0.426-0.442-0.884-0.717-1.435c-1.001-1.002-2.029-1.189-2.688-2.51
	c-0.357-0.723-0.314-1.266-0.538-2.149c-0.292-1.173-1.486-1.729-2.328-2.15c-0.966-0.483-1.945-0.341-2.688-0.896
	c-1.018-0.764-0.896-0.861-2.33-1.437c-1.108-0.444-2.219-0.056-3.047,0.358c-0.17,0.086-0.854,1.572-1.075,1.793
	c-0.327,0.326-0.874,0.561-1.381,0.683c-3.161-40.176-7.956-75.006-10.632-93.766c12.635-1.032,0.046,0.02,0.046,0.02
	c12.589-1.05,25.558-2.294,37.108-3.79c0.279,0.348,0.728,0.452,1.383,0.614c0.74,0.186,2.479,0.56,2.866,1.076
	c0.405,0.541,1.63,0.489,2.15,0.358c1.037-0.26,1.293,1.613,2.329,1.613c0.94,0,1.766,0.709,2.509,0.896
	c0.925,0.231,2.041,0.285,3.047,0.538c0.347,0.085,0.773,0.104,1.075,0.179c0.03,0.119-0.02,0.303,0.09,0.358
	c0.239,0.119,0.613,0.464,0.985,0.538c0.497,0.099,1.196,0.075,1.612,0.18c0.53,0.133,1.4,0.027,1.882,0.269
	c0.542,0.27,0.97,0.289,1.521,0.179c0.914-0.184,2.146-0.627,3.048-0.627c0.656,0,1.314,0,1.973,0c1.371,0,2.791-0.283,3.763-1.255
	c0.733-0.734,1.021-1.567,1.255-2.509c0.181-0.716,0.094-1.972,1.075-1.972c1.72,0,3.366,0.538,5.02,0.538
	c1.188,0,2.07,0.625,3.403,0.358c1.122-0.224,2.9-0.212,3.765-1.076c0.702-0.702,1.796-1.794,2.867-2.866
	c0.741-0.743,2.092-1.736,2.33-2.688c0.263-1.052,0.751-1.146,1.255-2.15c0.061-0.119,0.101-0.252,0.181-0.358
	c0.714-0.953,0.66-1.496,1.516-2.354c0.647-0.646,0.179-2.044,1.272-2.7c0.639-0.382,2.802-1.346,3.047-2.33
	c0.215-0.852,2.762-0.32,3.482-0.681c0.889-0.444,1.867-1.319,3.047-1.613c1.105-0.277,2.075-0.411,3.047-0.896
	c0.839-0.419,1.521-0.76,2.51-1.254C623.362,266.572,626.698,266.301,627.018,265.663L627.018,265.663z"/>
</svg>
