<?xml version="1.0" encoding="utf-8"?>
<!-- Generator: Adobe Illustrator 15.0.2, SVG Export Plug-In . SVG Version: 6.00 Build 0)  -->
<!DOCTYPE svg PUBLIC "-//W3C//DTD SVG 1.1//EN" "http://www.w3.org/Graphics/SVG/1.1/DTD/svg11.dtd">
<svg version="1.1" id="Layer_1" xmlns="http://www.w3.org/2000/svg" xmlns:xlink="http://www.w3.org/1999/xlink" x="0px" y="0px"
	 width="60px" height="60px" viewBox="0 0 60 60" style="enable-background:new 0 0 60 60;" xml:space="preserve">
<path d="M14.542,1.983c10.248,0,20.496,0,30.744,0c0,0.625,0,1.248,0,1.872c4.28,0,8.557,0,12.835,0c0,0.713,0,1.425,0,2.14
	c-1.619,8.434-2.545,15.532-7.754,20.051c-3.28,2.846-7.898,3.546-11.766,5.881c-2.278,1.378-3.41,3.986-6.147,4.546
	c0.123,6.025-1.142,13.438,4.276,14.17c-4.1,0.625-9.356,0.09-13.902,0.269c5.359-0.792,4.266-8.032,4.277-14.17
	c-1.846-1.452-4.03-2.565-5.346-4.546C9.66,28.965,2.655,20.642,1.708,6.261c0-0.803,0-1.604,0-2.406
	c4.196-0.172,9.082,0.346,12.834-0.268C14.542,3.053,14.542,2.518,14.542,1.983z M18.284,26.848
	c-2.184-5.569-4.13-11.376-3.742-19.518c-2.942,0-5.883,0-8.823,0C6.498,17.246,10.214,24.225,18.284,26.848z M41.542,26.848
	c8.051-2.644,11.642-9.749,12.565-19.518c-2.939,0-5.881,0-8.822,0C45.557,15.355,43.663,21.212,41.542,26.848z"/>
<rect x="16.854" y="52" width="25" height="7"/>
</svg>
