<?xml version="1.0" encoding="utf-8"?>
<!-- Generator: Adobe Illustrator 15.0.2, SVG Export Plug-In . SVG Version: 6.00 Build 0)  -->
<!DOCTYPE svg PUBLIC "-//W3C//DTD SVG 1.1//EN" "http://www.w3.org/Graphics/SVG/1.1/DTD/svg11.dtd">
<svg version="1.1" id="Layer_1" xmlns="http://www.w3.org/2000/svg" xmlns:xlink="http://www.w3.org/1999/xlink" x="0px" y="0px"
	 width="60px" height="60px" viewBox="0 0 60 60" style="enable-background:new 0 0 60 60;" xml:space="preserve">
<path d="M28.1,0c1.27,0,2.54,0,3.8,0c8.92,1.94,15.59,7.73,15.51,17.56C47.35,25.9,42,31.2,37.17,33.37
	c-12.4,5.57-26.08-4.75-24.59-18.15C13.35,8.4,19.08,1.44,28.1,0z"/>
<path d="M15.22,35.71c6.13,6.67,23.59,6,29.27,0.29c8.98,3.99,13.84,12.11,15.22,23.71c-19.9,0-39.81,0-59.71,0
	C1.14,47.77,6.41,39.97,15.22,35.71z"/>
</svg>
