<?xml version="1.0" encoding="utf-8"?>
<!-- Generator: Adobe Illustrator 15.0.2, SVG Export Plug-In . SVG Version: 6.00 Build 0)  -->
<!DOCTYPE svg PUBLIC "-//W3C//DTD SVG 1.1//EN" "http://www.w3.org/Graphics/SVG/1.1/DTD/svg11.dtd">
<svg version="1.1" id="Layer_1" xmlns="http://www.w3.org/2000/svg" xmlns:xlink="http://www.w3.org/1999/xlink" x="0px" y="0px"
	 width="130px" height="161px" viewBox="0 0 130 161" style="enable-background:new 0 0 130 161;" xml:space="preserve">
<path d="M59.78,4.01c4.33,0,8.67,0,13,0c31.14,6.66,59.04,27.04,55.99,61.99c-1.59,18.24-15.18,34.63-25,49.99
	c-10.54,16.48-18.42,35.76-34,40.99c-2.33,0-4.67,0-7,0c-17.77-6.56-25.79-24.94-36-39C16.27,103.52,8.26,86.28,2.79,68
	c0-3.33,0-6.67,0-10C8.79,27.01,28.1,9.32,59.78,4.01z M28.79,66c7.32,49.21,91.8,29.91,71.99-20c-6.23-15.69-22.72-22.86-39-21
	C40.42,27.46,25.41,43.35,28.79,66z"/>
</svg>
