<?xml version="1.0" encoding="utf-8"?>
<!-- Generator: Adobe Illustrator 15.0.2, SVG Export Plug-In . SVG Version: 6.00 Build 0)  -->
<!DOCTYPE svg PUBLIC "-//W3C//DTD SVG 1.1//EN" "http://www.w3.org/Graphics/SVG/1.1/DTD/svg11.dtd">
<svg version="1.1" id="Layer_1" xmlns="http://www.w3.org/2000/svg" xmlns:xlink="http://www.w3.org/1999/xlink" x="0px" y="0px"
	 width="60px" height="60px" viewBox="0 0 60 60" style="enable-background:new 0 0 60 60;" xml:space="preserve">
<path d="M27.81,0.89c1.38,0,2.76,0,4.14,0c2.94,0.84,4.21,3.35,3.71,7.63c1.46,1.01,3.85,1.09,5.02,2.4
	c1.86-1.04,2.82-2.99,4.8-3.92c4.21-0.71,7.91,3.11,7.85,6.32c-0.05,2.76-2.55,4.22-4.14,5.89c0.91,1.56,1.55,3.39,2.18,5.23
	c4.25-0.47,6.9,0.66,7.63,3.71c0,1.31,0,2.62,0,3.93c-0.73,3.12-3.38,4.32-7.63,3.93c-0.83,1.5-1.16,3.49-2.18,4.8
	c1.19,2.32,3.97,3.12,4.14,6.11c0.18,3.16-2.49,4.87-4.8,6.54c-4.52,0.59-5.61-2.25-7.63-4.14c-1.56,0.91-3.39,1.55-5.23,2.18
	c0.5,4.28-0.76,6.8-3.71,7.63c-1.38,0-2.76,0-4.14,0c-2.88-0.83-4.22-3.2-3.71-7.42c-1.4-1.07-3.74-1.2-5.02-2.4
	c-2.34,1.66-3.18,4.81-7.85,4.14c-5.79-2.35-5.81-9.34-0.65-12.43C9.84,39.44,9.02,37.92,8.62,36c-4.33,0.4-7.13-0.72-7.85-3.93
	c0-1.31,0-2.62,0-3.93c0.73-3.05,3.38-4.18,7.63-3.71c0.63-1.84,1.27-3.67,2.18-5.23c-1.6-1.67-4.1-3.12-4.14-5.89
	c-0.05-3.19,3.66-7.05,7.85-6.32c1.97,0.94,2.93,2.88,4.8,3.92c1.23-1.17,3.22-1.58,5.02-2.18C23.61,4.39,24.76,1.69,27.81,0.89z
	 M17.35,33.6c2.91,12,22,12.7,25.08,0c2.44-10.04-5.63-16.38-12.87-16.14C21.64,17.72,15.22,24.82,17.35,33.6z"/>
<path d="M29.12,24.44c3.91-0.53,7.09,2.04,6.54,6.54c-0.76,6.2-10.62,6.43-11.56,0.22C23.54,27.47,25.34,24.95,29.12,24.44z"/>
</svg>
